<?xml version="1.0" encoding="UTF-8"?>
<svg xmlns="http://www.w3.org/2000/svg" xmlns:xlink="http://www.w3.org/1999/xlink" viewBox="0 0 65 65" width="65px" height="65px">
<g id="surface63680438">
<path style=" stroke:none;fill-rule:nonzero;fill:rgb(50.980395%,34.117648%,90.196079%);fill-opacity:1;" d="M 32.5 4.0625 C 31.476562 4.0625 30.476562 4.433594 29.707031 5.207031 L 23.996094 10.980469 C 23.683594 11.148438 23.421875 11.386719 23.234375 11.679688 L 5.207031 29.707031 C 3.664062 31.238281 3.664062 33.753906 5.207031 35.292969 L 29.707031 59.796875 C 31.246094 61.328125 33.753906 61.328125 35.292969 59.796875 L 59.796875 35.292969 C 61.335938 33.761719 61.335938 31.246094 59.796875 29.707031 L 35.292969 5.207031 C 34.523438 4.433594 33.523438 4.0625 32.5 4.0625 Z M 32.5 8.1875 L 56.8125 32.5 L 32.5 56.8125 L 8.1875 32.5 L 25.011719 15.679688 L 28.566406 19.234375 C 28.46875 19.574219 28.4375 19.941406 28.4375 20.3125 C 28.4375 21.8125 29.253906 23.097656 30.46875 23.804688 L 30.46875 41.195312 C 29.253906 41.902344 28.4375 43.1875 28.4375 44.6875 C 28.4375 46.933594 30.253906 48.75 32.5 48.75 C 34.746094 48.75 36.5625 46.933594 36.5625 44.6875 C 36.5625 43.1875 35.746094 41.902344 34.53125 41.195312 L 34.53125 25.261719 L 40.753906 31.484375 C 40.664062 31.808594 40.625 32.152344 40.625 32.5 C 40.625 34.746094 42.441406 36.5625 44.6875 36.5625 C 46.933594 36.5625 48.75 34.746094 48.75 32.5 C 48.75 30.253906 46.933594 28.4375 44.6875 28.4375 C 44.339844 28.4375 43.996094 28.476562 43.671875 28.566406 L 36.433594 21.328125 C 36.523438 21.003906 36.5625 20.660156 36.5625 20.3125 C 36.5625 18.066406 34.746094 16.25 32.5 16.25 C 32.128906 16.25 31.761719 16.28125 31.421875 16.378906 L 27.867188 12.824219 Z M 32.5 8.1875 "/>
</g>
</svg>
