<?xml version="1.0" standalone="no"?>
<!DOCTYPE svg PUBLIC "-//W3C//DTD SVG 1.0//EN" "http://www.w3.org/TR/2001/REC-SVG-20010904/DTD/svg10.dtd">
<svg xmlns="http://www.w3.org/2000/svg" xmlns:xlink="http://www.w3.org/1999/xlink" id="body_1" width="65" height="63">

<g transform="matrix(0.221843 0 0 0.221843 -0 0.44027388)">
	<g transform="matrix(0.1 0 -0 -0.1 0 282)">
        <path d="M341 2632C 322 2623 297 2602 286 2587C 265 2559 265 2549 260 1657L260 1657L255 755L225 695C 198 641 195 626 195 540C 195 457 199 437 223 385C 259 307 327 239 404 203C 457 179 477 175 560 175C 647 175 661 178 721 208L721 208L787 240L1671 240C 2493 240 2557 241 2589 258C 2608 267 2633 288 2644 303C 2665 331 2665 334 2665 1445C 2665 2556 2665 2559 2644 2587C 2633 2602 2608 2623 2589 2632C 2557 2649 2483 2650 1465 2650C 447 2650 373 2649 341 2632zM1040 2425L1040 2260L680 2260L320 2260L320 2389C 320 2530 328 2566 362 2580C 375 2585 532 2589 713 2589L713 2589L1040 2590L1040 2425zM1828 2425L1828 2260L1464 2260L1100 2260L1100 2425L1100 2590L1464 2590L1829 2590L1828 2425zM2563 2579C 2602 2561 2610 2529 2610 2390L2610 2390L2610 2260L2250 2260L1890 2260L1890 2425L1890 2590L2215 2590C 2431 2590 2547 2586 2563 2579zM1043 2188C 1041 2183 1040 1757 1040 1240L1040 1240L1040 300L944 300C 891 300 850 303 852 308C 921 444 924 454 923 535C 923 649 895 717 816 796C 737 875 669 903 555 903C 474 904 464 901 328 832C 323 830 320 1137 320 1514L320 1514L320 2200L683 2198C 882 2196 1044 2192 1043 2188zM1828 1247L1830 300L1465 300L1100 300L1100 1243C 1100 1762 1103 2190 1107 2193C 1111 2197 1274 2199 1469 2198L1469 2198L1825 2195L1828 1247zM2610 1275L2610 349L2585 325L2561 300L2222 300L1882 300L1883 1243C 1883 1761 1884 2188 1887 2193C 1889 2197 2053 2200 2251 2200L2251 2200L2610 2200L2610 1275zM696 815C 803 763 864 663 864 540C 865 450 835 375 774 316C 713 257 666 237 574 232C 501 228 486 231 434 254C 357 289 314 331 279 405C 225 517 246 661 330 748C 427 849 572 876 696 815z" stroke="none" fill="#000000" fill-rule="nonzero" />
        <path d="M416 2434C 400 2393 420 2390 689 2392L689 2392L945 2395L945 2420L945 2445L684 2448C 449 2450 422 2449 416 2434z" stroke="none" fill="#000000" fill-rule="nonzero" />
        <path d="M1204 2435C 1200 2427 1200 2413 1204 2405C 1209 2392 1247 2390 1463 2390C 1729 2390 1750 2393 1734 2434C 1729 2448 1699 2450 1469 2450C 1247 2450 1209 2448 1204 2435z" stroke="none" fill="#000000" fill-rule="nonzero" />
        <path d="M1996 2447C 1986 2440 1979 2425 1982 2414C 1985 2396 1997 2395 2239 2392C 2485 2390 2520 2393 2520 2421C 2520 2425 2513 2436 2504 2444C 2491 2458 2454 2460 2251 2460C 2071 2460 2010 2457 1996 2447z" stroke="none" fill="#000000" fill-rule="nonzero" />
        <path d="M433 2103C 423 2100 420 2039 420 1849L420 1849L420 1600L453 1599C 565 1595 931 1600 940 1605C 955 1614 953 2083 938 2098C 929 2107 860 2110 686 2109C 553 2109 439 2106 433 2103zM890 1850L890 1660L685 1660L480 1660L480 1853L480 2045L685 2042L890 2039L890 1850z" stroke="none" fill="#000000" fill-rule="nonzero" />
        <path d="M420 1251C 420 1033 422 1001 436 996C 445 993 559 990 690 990C 879 990 930 993 939 1004C 947 1013 950 1089 948 1256L948 1256L945 1495L683 1498L420 1500L420 1251zM890 1245L890 1050L685 1050L480 1050L480 1248L480 1445L685 1442L890 1439L890 1245z" stroke="none" fill="#000000" fill-rule="nonzero" />
        <path d="M1212 2098C 1203 2089 1200 2020 1200 1848C 1200 1610 1200 1610 1223 1602C 1241 1596 1427 1595 1688 1599L1688 1599L1730 1600L1730 1849C 1730 2067 1728 2099 1714 2104C 1705 2107 1592 2110 1461 2110C 1290 2110 1221 2107 1212 2098zM1675 1850L1675 1655L1468 1652L1260 1650L1260 1850L1260 2050L1468 2048L1675 2045L1675 1850z" stroke="none" fill="#000000" fill-rule="nonzero" />
        <path d="M1207 1493C 1194 1481 1199 1015 1212 1002C 1221 993 1290 990 1461 990C 1592 990 1705 993 1714 996C 1728 1001 1730 1033 1730 1251L1730 1251L1730 1500L1472 1500C 1330 1500 1210 1497 1207 1493zM1670 1245L1670 1050L1465 1050L1260 1050L1260 1245L1260 1440L1465 1440L1670 1440L1670 1245z" stroke="none" fill="#000000" fill-rule="nonzero" />
        <path d="M1207 893C 1203 890 1200 780 1200 650C 1200 461 1203 410 1214 401C 1223 393 1301 390 1476 392L1476 392L1725 395L1725 645L1725 895L1469 898C 1329 899 1211 897 1207 893zM1670 645L1670 450L1465 450L1260 450L1260 645L1260 840L1465 840L1670 840L1670 645z" stroke="none" fill="#000000" fill-rule="nonzero" />
        <path d="M1998 2099C 1982 2090 1980 2067 1980 1850C 1980 1693 1984 1609 1991 1605C 2007 1595 2482 1592 2503 1602C 2518 1610 2520 1632 2520 1850C 2520 2076 2519 2090 2501 2100C 2475 2113 2021 2113 1998 2099zM2460 1850L2460 1650L2250 1650L2040 1650L2040 1850L2040 2050L2250 2050L2460 2050L2460 1850z" stroke="none" fill="#000000" fill-rule="nonzero" />
        <path d="M1986 1484C 1974 1453 1979 1015 1992 1002C 2011 983 2493 985 2509 1004C 2517 1013 2520 1089 2518 1256L2518 1256L2515 1495L2254 1498C 2022 1500 1992 1499 1986 1484zM2458 1248L2455 1055L2250 1055L2045 1055L2042 1248L2040 1440L2250 1440L2460 1440L2458 1248z" stroke="none" fill="#000000" fill-rule="nonzero" />
        <path d="M1986 884C 1974 853 1979 415 1992 402C 2011 383 2493 385 2509 404C 2517 413 2520 489 2518 656L2518 656L2515 895L2254 898C 2022 900 1992 899 1986 884zM2460 645L2460 450L2250 450L2040 450L2040 645L2040 840L2250 840L2460 840L2460 645z" stroke="none" fill="#000000" fill-rule="nonzero" />
        <path d="M594 578L490 476L457 508C 420 544 408 547 390 524C 379 511 385 501 431 454C 460 425 489 400 494 400C 499 400 554 450 617 512C 730 624 751 660 714 674C 702 679 667 651 594 578z" stroke="none" fill="#000000" fill-rule="nonzero" />
	</g>
</g>
</svg>