<?xml version="1.0" encoding="UTF-8"?>
<svg xmlns="http://www.w3.org/2000/svg" xmlns:xlink="http://www.w3.org/1999/xlink" viewBox="0 0 65 65" width="65px" height="65px">
<g id="surface63687325">
<path style=" stroke:none;fill-rule:nonzero;fill:rgb(50.980395%,34.117648%,90.196079%);fill-opacity:1;" d="M 59.582031 32.5 C 59.582031 47.457031 47.457031 59.582031 32.5 59.582031 C 17.542969 59.582031 5.417969 47.457031 5.417969 32.5 C 5.417969 17.542969 17.542969 5.417969 32.5 5.417969 C 47.457031 5.417969 59.582031 17.542969 59.582031 32.5 Z M 59.582031 32.5 "/>
<path style=" stroke:none;fill-rule:nonzero;fill:rgb(50.980395%,34.117648%,90.196079%);fill-opacity:1;" d="M 56.875 32.5 C 56.875 45.960938 45.960938 56.875 32.5 56.875 C 19.039062 56.875 8.125 45.960938 8.125 32.5 C 8.125 19.039062 19.039062 8.125 32.5 8.125 C 45.960938 8.125 56.875 19.039062 56.875 32.5 Z M 56.875 32.5 "/>
<path style=" stroke:none;fill-rule:nonzero;fill:rgb(50.980395%,34.117648%,90.196079%);fill-opacity:1;" d="M 40.207031 43.265625 C 40.207031 49.15625 36.019531 54.070312 30.46875 55.210938 L 29.722656 55.34375 C 18.320312 53.992188 9.480469 44.28125 9.480469 32.5 C 9.480469 19.785156 19.785156 9.480469 32.5 9.480469 C 32.730469 9.480469 32.972656 9.480469 33.203125 9.492188 C 28.464844 11.160156 25.050781 15.667969 25.050781 20.988281 C 25.050781 23.007812 25.539062 24.917969 26.417969 26.597656 C 27.585938 28.84375 29.535156 30.578125 31.796875 31.714844 L 33.449219 32.539062 C 35.710938 33.679688 37.671875 35.410156 38.835938 37.660156 C 39.703125 39.339844 40.207031 41.246094 40.207031 43.265625 Z M 40.207031 43.265625 "/>
<path style=" stroke:none;fill-rule:nonzero;fill:rgb(100%,100%,100%);fill-opacity:1;" d="M 52.078125 37.277344 C 51.027344 36.023438 49.347656 34.800781 48.273438 33.03125 C 48.125 32.78125 48.203125 32.480469 48.457031 32.34375 C 49.832031 31.609375 50.074219 31.742188 51.457031 31.144531 C 50.105469 29.792969 48.699219 29.304688 46.472656 28.742188 C 46.039062 28.652344 45.785156 28.289062 45.714844 27.886719 C 45.59375 27.449219 45.339844 26.707031 45.074219 26.113281 C 43.152344 22.226562 40.753906 17.144531 35.886719 16.761719 C 35.566406 16.757812 35.261719 16.628906 35.046875 16.414062 C 34.433594 15.828125 33.574219 15.105469 32.785156 14.984375 C 32.628906 15 32.707031 14.949219 32.589844 15.058594 C 32.273438 15.429688 32.335938 15.441406 32.554688 15.910156 C 32.84375 16.410156 33.402344 16.984375 33.953125 17.546875 C 34.507812 18.265625 34.121094 19.320312 34.488281 20.125 C 34.636719 20.699219 34.953125 21.375 35.304688 21.789062 C 35.472656 22.007812 35.523438 22.285156 35.472656 22.535156 C 35.082031 24.398438 34.808594 26.410156 35.183594 28.277344 C 35.195312 28.476562 35.386719 28.550781 35.53125 28.480469 C 35.578125 28.445312 35.574219 28.46875 35.75 28.164062 C 35.960938 27.691406 37.476562 24.789062 37.917969 25.730469 C 38.558594 27.8125 39.445312 31.863281 41.332031 33.117188 C 41.410156 33.148438 41.347656 33.28125 41.269531 33.238281 C 39.300781 32.21875 37.707031 29.605469 37.238281 27.839844 C 36.871094 27.871094 36.542969 28.167969 36.359375 28.507812 C 36.082031 29.484375 34.65625 29.53125 34.398438 28.492188 C 34.296875 28.089844 34.210938 27.679688 34.171875 27.265625 C 34.023438 25.761719 34.117188 23.539062 34.457031 22.414062 C 33.503906 21.386719 32.972656 19.398438 33.097656 18.359375 C 32.539062 17.792969 31.949219 17.238281 31.511719 16.539062 C 30.691406 15.492188 31.410156 13.652344 32.824219 13.71875 C 34.074219 13.824219 35.085938 14.675781 35.976562 15.480469 C 36.964844 15.394531 38.921875 16.082031 40.015625 16.824219 C 42.5 18.4375 43.804688 21.203125 45.226562 23.699219 C 45.777344 24.832031 46.773438 26.746094 46.746094 27.660156 C 49.273438 28.441406 52.128906 29.386719 53.570312 31.785156 C 53.59375 31.832031 53.570312 31.890625 53.519531 31.90625 L 49.589844 33.140625 L 52.191406 37.203125 C 52.238281 37.269531 52.128906 37.351562 52.078125 37.277344 Z M 52.078125 37.277344 "/>
<path style=" stroke:none;fill-rule:nonzero;fill:rgb(100%,100%,100%);fill-opacity:1;" d="M 36.625 18.535156 L 37.753906 20.144531 C 37.753906 20.148438 39.039062 18.320312 36.625 18.535156 Z M 36.625 18.535156 "/>
<path style=" stroke:none;fill-rule:nonzero;fill:rgb(100%,100%,100%);fill-opacity:1;" d="M 13.21875 27.179688 C 14.269531 28.433594 15.953125 29.65625 17.023438 31.425781 C 17.171875 31.675781 17.09375 31.976562 16.839844 32.113281 C 15.464844 32.847656 15.226562 32.710938 13.839844 33.3125 C 15.195312 34.664062 16.597656 35.152344 18.824219 35.714844 C 19.261719 35.804688 19.511719 36.167969 19.585938 36.570312 C 19.703125 37.007812 19.957031 37.75 20.222656 38.34375 C 22.148438 42.230469 24.546875 47.3125 29.414062 47.695312 C 29.734375 47.699219 30.039062 47.828125 30.253906 48.042969 C 30.867188 48.628906 31.722656 49.351562 32.511719 49.472656 C 32.667969 49.457031 32.589844 49.507812 32.710938 49.398438 C 33.027344 49.027344 32.964844 49.015625 32.746094 48.546875 C 32.453125 48.046875 31.894531 47.472656 31.347656 46.910156 C 30.792969 46.191406 31.175781 45.136719 30.8125 44.332031 C 30.660156 43.757812 30.34375 43.082031 29.996094 42.667969 C 29.824219 42.449219 29.773438 42.171875 29.828125 41.921875 C 30.21875 40.058594 30.492188 38.046875 30.113281 36.179688 C 30.105469 35.980469 29.910156 35.90625 29.765625 35.976562 C 29.722656 36.011719 29.722656 35.988281 29.550781 36.292969 C 29.335938 36.765625 27.820312 39.664062 27.382812 38.726562 C 26.742188 36.640625 25.851562 32.589844 23.964844 31.339844 C 23.886719 31.304688 23.949219 31.171875 24.027344 31.21875 C 25.996094 32.234375 27.589844 34.847656 28.058594 36.613281 C 28.425781 36.582031 28.753906 36.285156 28.9375 35.945312 C 29.214844 34.972656 30.644531 34.921875 30.898438 35.960938 C 31.003906 36.367188 31.085938 36.773438 31.125 37.1875 C 31.277344 38.691406 31.179688 40.917969 30.839844 42.039062 C 31.792969 43.066406 32.328125 45.054688 32.199219 46.09375 C 32.761719 46.660156 33.347656 47.21875 33.785156 47.914062 C 34.609375 48.960938 33.886719 50.800781 32.476562 50.734375 C 31.222656 50.632812 30.210938 49.777344 29.320312 48.972656 C 28.332031 49.0625 26.378906 48.371094 25.28125 47.632812 C 22.796875 46.019531 21.492188 43.25 20.074219 40.753906 C 19.519531 39.621094 18.527344 37.707031 18.550781 36.796875 C 16.023438 36.011719 13.167969 35.066406 11.726562 32.671875 C 11.703125 32.625 11.726562 32.5625 11.78125 32.546875 L 15.707031 31.316406 L 13.105469 27.253906 C 13.0625 27.1875 13.167969 27.105469 13.21875 27.179688 Z M 13.21875 27.179688 "/>
<path style=" stroke:none;fill-rule:nonzero;fill:rgb(100%,100%,100%);fill-opacity:1;" d="M 28.671875 45.921875 L 27.546875 44.3125 C 27.546875 44.3125 26.257812 46.136719 28.671875 45.921875 Z M 28.671875 45.921875 "/>
<path style=" stroke:none;fill-rule:nonzero;fill:rgb(100%,100%,100%);fill-opacity:1;" d="M 27.5 56.4375 L 27.253906 55.105469 L 30.347656 54.539062 C 35.65625 53.453125 39.523438 48.710938 39.523438 43.265625 C 39.523438 41.398438 39.089844 39.617188 38.238281 37.976562 C 37.199219 35.972656 35.4375 34.300781 33.148438 33.148438 L 31.496094 32.320312 C 28.949219 31.039062 26.984375 29.167969 25.8125 26.90625 C 24.871094 25.089844 24.375 23.046875 24.375 20.988281 C 24.375 14.90625 28.695312 9.605469 34.648438 8.386719 L 34.917969 9.710938 C 29.59375 10.804688 25.730469 15.542969 25.730469 20.988281 C 25.730469 22.855469 26.160156 24.636719 27.015625 26.28125 C 28.054688 28.285156 29.816406 29.953125 32.105469 31.105469 L 33.757812 31.9375 C 36.304688 33.214844 38.269531 35.089844 39.441406 37.347656 C 40.378906 39.160156 40.878906 41.207031 40.878906 43.261719 C 40.878906 49.347656 36.558594 54.648438 30.605469 55.867188 Z M 27.5 56.4375 "/>
<path style=" stroke:none;fill-rule:nonzero;fill:rgb(100%,100%,100%);fill-opacity:1;" d="M 32.5 10.832031 C 44.445312 10.832031 54.167969 20.554688 54.167969 32.5 C 54.167969 44.445312 44.445312 54.167969 32.5 54.167969 C 20.554688 54.167969 10.832031 44.445312 10.832031 32.5 C 10.832031 20.554688 20.554688 10.832031 32.5 10.832031 M 32.5 8.125 C 19.039062 8.125 8.125 19.039062 8.125 32.5 C 8.125 45.960938 19.039062 56.875 32.5 56.875 C 45.960938 56.875 56.875 45.960938 56.875 32.5 C 56.875 19.039062 45.960938 8.125 32.5 8.125 Z M 32.5 8.125 "/>
</g>
</svg>
