<?xml version="1.0" encoding="UTF-8"?>
<svg xmlns="http://www.w3.org/2000/svg" xmlns:xlink="http://www.w3.org/1999/xlink" viewBox="0 0 65 65" width="65px" height="65px">
<g id="surface63447543">
<path style=" stroke:none;fill-rule:nonzero;fill:rgb(50.980395%,34.117648%,90.196079%);fill-opacity:1;" d="M 32.5 46.960938 C 13.972656 46.960938 0 40.902344 0 32.5 C 0 24.097656 13.972656 17.875 32.5 17.875 C 51.027344 17.875 65 24.097656 65 32.5 C 65 40.902344 51.027344 46.960938 32.5 46.960938 Z M 32.5 22.640625 C 16.691406 22.640625 4.671875 27.945312 4.671875 32.601562 C 4.671875 37.257812 16.691406 42.359375 32.5 42.359375 C 48.308594 42.359375 60.328125 37.054688 60.328125 32.398438 C 60.328125 27.742188 48.308594 22.640625 32.5 22.640625 Z M 32.5 22.640625 "/>
<path style=" stroke:none;fill-rule:nonzero;fill:rgb(50.980395%,34.117648%,90.196079%);fill-opacity:1;" d="M 20.152344 61.75 C 18.640625 61.75 17.257812 61.398438 16.046875 60.707031 C 14.0625 59.574219 12.640625 57.574219 11.929688 54.917969 C 10.070312 47.960938 13.074219 36.261719 19.589844 25.109375 C 27.234375 12.035156 37.386719 3.253906 44.847656 3.253906 C 46.359375 3.253906 47.742188 3.605469 48.953125 4.296875 C 50.933594 5.425781 52.359375 7.425781 53.066406 10.078125 C 54.929688 17.039062 51.925781 28.738281 45.40625 39.890625 C 37.765625 52.964844 27.617188 61.75 20.152344 61.75 Z M 44.847656 8.128906 C 40.15625 8.128906 31.183594 14.945312 23.796875 27.570312 C 17.097656 39.035156 15.132812 48.546875 16.640625 53.65625 C 17.050781 55.039062 17.625 55.996094 18.464844 56.472656 C 22.300781 58.664062 32.777344 51.839844 41.199219 37.433594 C 47.902344 25.964844 50.070312 16.65625 48.359375 11.34375 C 47.917969 9.976562 47.375 9.011719 46.539062 8.535156 C 46.0625 8.261719 45.507812 8.128906 44.847656 8.128906 Z M 44.847656 8.128906 "/>
<path style=" stroke:none;fill-rule:nonzero;fill:rgb(50.980395%,34.117648%,90.196079%);fill-opacity:1;" d="M 44.847656 61.746094 C 37.378906 61.742188 27.226562 52.960938 19.589844 39.890625 C 13.074219 28.738281 10.070312 17.039062 11.929688 10.082031 C 12.640625 7.425781 14.0625 5.425781 16.042969 4.292969 C 17.257812 3.601562 18.640625 3.25 20.148438 3.25 C 27.617188 3.25 37.765625 12.035156 45.40625 25.109375 C 51.921875 36.257812 54.929688 47.960938 53.066406 54.921875 C 52.355469 57.574219 50.933594 59.574219 48.953125 60.703125 C 47.742188 61.394531 46.359375 61.746094 44.847656 61.746094 Z M 20.148438 8.125 C 19.488281 8.125 18.9375 8.257812 18.460938 8.527344 C 17.625 9.003906 17.039062 9.960938 16.640625 11.34375 C 15.132812 16.554688 17.097656 25.964844 23.796875 37.433594 C 31.175781 50.054688 40.148438 56.871094 44.847656 56.871094 C 45.507812 56.871094 46.0625 56.738281 46.539062 56.464844 C 47.375 55.992188 47.972656 55.042969 48.355469 53.65625 C 49.765625 48.546875 47.898438 39.03125 41.195312 27.566406 C 33.816406 14.941406 24.847656 8.125 20.148438 8.125 Z M 20.148438 8.125 "/>
<path style=" stroke:none;fill-rule:nonzero;fill:rgb(50.980395%,34.117648%,90.196079%);fill-opacity:1;" d="M 38.1875 32.5 C 38.1875 35.644531 35.644531 38.1875 32.5 38.1875 C 29.355469 38.1875 26.8125 35.644531 26.8125 32.5 C 26.8125 29.355469 29.355469 26.8125 32.5 26.8125 C 35.644531 26.8125 38.1875 29.355469 38.1875 32.5 Z M 38.1875 32.5 "/>
<path style=" stroke:none;fill-rule:nonzero;fill:rgb(50.980395%,34.117648%,90.196079%);fill-opacity:1;" d="M 32.5 39 C 28.914062 39 26 36.085938 26 32.5 C 26 28.914062 28.914062 26 32.5 26 C 36.085938 26 39 28.914062 39 32.5 C 39 36.085938 36.085938 39 32.5 39 Z M 32.5 27.625 C 29.8125 27.625 27.625 29.8125 27.625 32.5 C 27.625 35.1875 29.8125 37.375 32.5 37.375 C 35.1875 37.375 37.375 35.1875 37.375 32.5 C 37.375 29.8125 35.1875 27.625 32.5 27.625 Z M 32.5 27.625 "/>
<path style=" stroke:none;fill-rule:nonzero;fill:rgb(50.980395%,34.117648%,90.196079%);fill-opacity:1;" d="M 32.5 45.609375 C 15.1875 45.609375 1.625 39.851562 1.625 32.5 C 1.625 25.148438 15.1875 19.390625 32.5 19.390625 C 49.8125 19.390625 63.375 25.148438 63.375 32.5 C 63.375 39.851562 49.8125 45.609375 32.5 45.609375 Z M 32.5 21.015625 C 16.644531 21.015625 3.25 26.273438 3.25 32.5 C 3.25 38.726562 16.644531 43.984375 32.5 43.984375 C 48.355469 43.984375 61.75 38.726562 61.75 32.5 C 61.75 26.273438 48.355469 21.015625 32.5 21.015625 Z M 32.5 21.015625 "/>
<path style=" stroke:none;fill-rule:nonzero;fill:rgb(50.980395%,34.117648%,90.196079%);fill-opacity:1;" d="M 20.152344 60.125 C 18.925781 60.125 17.816406 59.84375 16.851562 59.292969 C 15.230469 58.371094 14.105469 56.757812 13.5 54.496094 C 11.742188 47.9375 14.683594 36.722656 20.988281 25.929688 C 28.242188 13.535156 38.050781 4.878906 44.847656 4.878906 C 46.074219 4.878906 47.183594 5.160156 48.148438 5.710938 C 49.765625 6.632812 50.894531 8.246094 51.5 10.5 C 53.257812 17.0625 50.316406 28.273438 44.003906 39.070312 C 36.757812 51.46875 26.953125 60.125 20.152344 60.125 Z M 44.847656 6.503906 C 38.699219 6.503906 29.257812 15.019531 22.394531 26.75 C 16.390625 37.027344 13.445312 48.007812 15.070312 54.078125 C 15.558594 55.902344 16.429688 57.183594 17.65625 57.882812 C 18.375 58.292969 19.210938 58.5 20.152344 58.5 C 26.300781 58.5 35.742188 49.984375 42.597656 38.25 C 48.605469 27.972656 51.554688 16.988281 49.925781 10.921875 C 49.4375 9.101562 48.570312 7.820312 47.34375 7.121094 C 46.625 6.710938 45.789062 6.503906 44.847656 6.503906 Z M 44.847656 6.503906 "/>
<path style=" stroke:none;fill-rule:nonzero;fill:rgb(50.980395%,34.117648%,90.196079%);fill-opacity:1;" d="M 44.847656 60.121094 C 38.042969 60.117188 28.234375 51.464844 20.992188 39.070312 C 14.683594 28.277344 11.742188 17.0625 13.5 10.503906 C 14.105469 8.242188 15.230469 6.628906 16.851562 5.707031 C 17.816406 5.15625 18.925781 4.875 20.148438 4.875 C 26.949219 4.875 36.757812 13.53125 44.003906 25.929688 C 50.3125 36.722656 53.253906 47.9375 51.496094 54.5 C 50.890625 56.757812 49.765625 58.367188 48.148438 59.289062 C 47.183594 59.839844 46.074219 60.121094 44.847656 60.121094 Z M 20.148438 6.5 C 19.210938 6.5 18.371094 6.707031 17.65625 7.117188 C 16.425781 7.816406 15.558594 9.097656 15.070312 10.921875 C 13.445312 16.988281 16.390625 27.972656 22.394531 38.25 C 29.25 49.980469 38.695312 58.492188 44.847656 58.496094 C 45.789062 58.496094 46.628906 58.289062 47.34375 57.878906 C 48.570312 57.179688 49.4375 55.898438 49.925781 54.078125 C 51.550781 48.007812 48.605469 37.027344 42.601562 26.75 C 35.742188 15.015625 26.304688 6.5 20.148438 6.5 Z M 20.148438 6.5 "/>
</g>
</svg>
