<?xml version="1.0" standalone="no"?>
<!DOCTYPE svg PUBLIC "-//W3C//DTD SVG 1.0//EN" "http://www.w3.org/TR/2001/REC-SVG-20010904/DTD/svg10.dtd">
<svg xmlns="http://www.w3.org/2000/svg" xmlns:xlink="http://www.w3.org/1999/xlink" id="body_1" width="65" height="65">

<g transform="matrix(0.07411656 0 0 0.07411656 2.4458463 3.181197)">
	<g>
        <path d="M193.25 381.21C 195.04 373.16998 197.17 365.22 199.64 357.36C 202.11 349.50998 204.91 341.77 208.03 334.15C 211.15271 326.53644 214.59924 319.05945 218.36 311.74C 222.12 304.41 226.19 297.25998 230.56 290.28C 234.77 283.58 239.22 277.03 243.9 270.65C 248.58946 264.27737 253.51321 258.07928 258.66 252.06999C 263.80002 246.06 269.17 240.23999 274.75 234.62C 280.3219 229.00476 286.10236 223.6012 292.08 218.42C 287.5 222.39 283.03998 226.48999 278.69998 230.72C 274.37 234.95 270.15 239.31 266.05997 243.78C 261.96994 248.25 258.01996 252.84 254.18997 257.55C 250.36996 262.25 246.67998 267.06 243.13997 271.97C 245.64996 268.47 248.23997 265.03 250.92996 261.66C 253.61995 258.29 256.38995 254.99 259.24997 251.76001C 262.09998 248.53001 265.03998 245.38 268.05997 242.31001C 271.07996 239.23001 274.17996 236.24 277.35995 233.32C 280.56995 230.39001 283.84995 227.53001 287.20996 224.77C 290.55997 222 293.98996 219.32 297.47995 216.73001C 300.96994 214.14001 304.52994 211.64001 308.14996 209.23001C 311.77 206.82 315.44995 204.50002 319.18997 202.28001C 317.86996 203.59001 316.52997 204.88002 315.16998 206.15001C 313.81 207.42 312.43 208.67001 311.03998 209.90001C 309.64996 211.13 308.24 212.34001 306.80997 213.54001C 305.38995 214.73001 303.93997 215.90001 302.47998 217.06001C 296.38998 222.29001 291.18997 227.52002 290.37997 230.76001C 282.33124 238.03374 274.63562 245.68932 267.31998 253.70001C 259.99997 261.7 253.05998 270.05002 246.52997 278.72C 240.01028 287.3896 233.90063 296.3589 228.21997 305.6C 222.54997 314.85 217.31998 324.36002 212.54997 334.11002C 207.75998 343.89 203.47998 353.92 199.70998 364.14C 195.94998 374.36002 192.70998 384.77002 190.00998 395.32C 184.61426 416.443 181.39087 438.06177 180.38998 459.84C 179.45999 456.24 178.77998 452.58 178.35999 448.88C 177.93999 445.18002 177.77998 441.46 177.88998 437.74C 178.08917 430.2927 179.33472 422.91037 181.58998 415.81C 185.27998 403.41 190.45998 392.9 193.24998 381.21M407.83997 164.74998C 399.72906 167.31003 391.7082 170.1448 383.78998 173.24998C 385.71997 172.35999 387.68 171.50998 389.64996 170.70999C 391.61993 169.91 393.60995 169.15999 395.61996 168.45C 397.62997 167.74 399.64996 167.08 401.68997 166.45999C 403.72998 165.83998 405.77997 165.26999 407.83997 164.74998M509.14996 733.49C 518.04 732.52 526.87994 731.16 535.29 729.8C 533.14996 730.31 530.99 730.76 528.82996 731.17C 526.66 731.57 524.4899 731.93 522.2999 732.24C 520.11993 732.54 517.92993 732.8 515.7399 733.01C 513.5499 733.22003 511.3499 733.38 509.14993 733.49M206.97992 493.5L210.87991 508.02C 212.2799 517.5 214.13991 526.91 216.45992 536.22C 218.76991 545.51996 221.51991 554.70996 224.71991 563.75C 231.10947 581.8431 239.2305 599.27734 248.96991 615.81C 246.09363 611.1824 243.32611 606.4875 240.6699 601.73C 238.01991 596.97 235.46991 592.14996 233.0399 587.26996C 230.6199 582.38995 228.2999 577.45996 226.10991 572.47C 223.90991 567.49 221.82991 562.44995 219.8699 557.36C 217.9099 552.27 216.1699 547.1 214.63991 541.86C 213.1199 536.62 211.8199 531.32 210.73991 525.98C 209.65991 520.63 208.79991 515.24 208.17992 509.81998C 207.54991 504.39996 207.14992 498.94998 206.97992 493.49997M213.06992 452.83997C 213.11992 443.61996 213.76991 434.40997 214.99991 425.27997C 216.2299 416.13995 218.0399 407.08997 220.4299 398.18997C 222.8099 389.27997 225.7699 380.53998 229.2699 372.00998C 232.7699 363.49 236.8199 355.18997 241.3899 347.18C 237.03989 355.28998 233.1599 363.63998 229.7699 372.19C 226.3899 380.75 223.4999 389.49 221.1199 398.37C 218.7299 407.26 216.8699 416.27 215.5199 425.37C 214.1799 434.47 213.3599 443.63998 213.0699 452.84M693.8299 574.54C 693.0999 574.27997 692.8899 573.47 692.9199 572.5C 692.9899 572.3 693.05994 572.08 693.1099 571.87C 693.1599 571.65 693.2099 571.44 693.2399 571.22C 693.26996 570.99994 693.2899 570.77997 693.2899 570.55C 693.2999 570.33 693.2999 570.11 693.2799 569.89C 694.9999 567.35004 696.67993 564.78 698.30994 562.17004C 699.92993 559.57007 701.50995 556.93005 703.0399 554.27C 704.55994 551.61005 706.0399 548.91003 707.4599 546.2C 708.8899 543.48004 710.2599 540.73004 711.5799 537.96C 711.5099 538.73004 711.4199 539.49005 711.3099 540.25C 711.2099 541.02 711.0899 541.78 710.9599 542.54C 710.8299 543.2999 710.6899 544.05 710.5299 544.81C 710.36993 545.56 710.1999 546.31 710.0099 547.06C 709.3899 548.19 708.7499 549.31 708.0799 550.41C 706.7459 552.62006 705.31793 554.77203 703.79987 556.86C 703.03986 557.91 702.2599 558.94 701.45984 559.95C 700.66986 561.07 699.90985 562.21 699.1898 563.37C 698.46985 564.54 697.7998 565.73 697.1598 566.94C 696.5298 568.16 695.9398 569.39 695.3898 570.65C 694.8398 571.9 694.3398 573.18005 693.87976 574.47003M499.34976 734.09L498.40976 734.49005C 495.34976 734.7001 492.30975 734.9 489.30975 735.0101L489.30975 735.0101L488.20975 734.75006C 491.91974 734.49005 495.60974 734.25006 499.34976 734.0901M685.09973 587.5401C 684.7797 587.3601 684.4597 587.2101 684.11975 587.0701C 683.78973 586.9401 683.43976 586.83014 683.0897 586.7501C 682.7397 586.6701 682.3797 586.6101 682.0197 586.58014C 681.6597 586.5502 681.29974 586.5501 680.9397 586.5701C 685.2497 581.34015 689.3597 575.7501 693.1997 570.0701L693.1997 570.0701L693.1097 570.6801C 693.07965 570.8801 693.0497 571.08014 693.02966 571.2801C 692.99963 571.4901 692.9797 571.69006 692.95966 571.8901C 692.93964 572.1001 692.9296 572.30005 692.9197 572.50006C 691.52966 577.00006 686.45966 582.29004 685.0697 587.54004M557.0697 667.54004C 553.0497 668.82007 550.1397 672.53 548.3397 673.76C 537.09973 674.52 526.0097 674.57 513.1997 674.47003C 511.2697 675.41003 507.1097 675.75006 503.1897 677.37006C 500.7797 676.2701 498.2497 675.38007 495.5797 674.47003C 502.7997 674.55005 510.02972 674.29004 517.2197 673.69C 524.41974 673.09 531.5897 672.15 538.6997 670.88C 545.8097 669.61 552.8597 668.01 559.8197 666.08C 566.7797 664.15 573.6397 661.9 580.3897 659.33C 578.5197 660.18 576.6297 661 574.72974 661.77C 572.81976 662.55005 570.8997 663.27 568.9597 663.96C 567.0197 664.64 565.0597 665.29004 563.0897 665.88C 561.1297 666.48 559.1397 667.03 557.1497 667.54" stroke="none" fill="#415870" fill-rule="nonzero" />
        <path d="M427.87 208.45C 449.22998 201.55 473.65 199.43 497.41 200.34999C 521.18 201.26 544.47003 204.73999 566.64 207.01C 542.54004 197.44 511.61002 192.06 485.59003 190.67C 459.58002 189.28 438.85004 190.3 433.44003 185.06999C 428.03003 179.83998 446.72003 174.60999 472.65002 173.62C 476.11002 173.51999 479.57004 173.48999 483.02002 173.53C 486.48 173.56999 489.93002 173.68 493.39 173.85C 496.84003 174.02 500.29 174.26001 503.73 174.57C 507.17 174.87001 510.61002 175.25 514.04004 175.68001C 527.92004 177.36 541.12006 179.97 551.82007 182.01001C 546.4101 179.58002 546.4101 179.58002 540.92004 177.31001C 546.43005 179.58002 551.82007 181.93001 557.15 181.65001C 551.9617 179.33582 546.6766 177.2438 541.31 175.38C 539.52 174.76001 537.73 174.16 535.92 173.59001C 528.24 170.98001 521.01996 168.65001 517.86 166.40001C 521.49 165.64001 525.12 165.04001 528.81 164.44C 514.07 157.95 491.4 153.98 468.31 153.33C 445.23 152.67 421.88 154.74 404.78 155C 415.4 153.79 426.05 152.97 436.73 152.55C 447.40002 152.12001 458.09003 152.1 468.77002 152.47C 479.44003 152.84 490.1 153.61 500.72003 154.77C 511.34003 155.94 521.91003 157.5 532.42004 159.44C 543.68005 161.58 554.84 164.28 565.84 167.52C 576.84 170.75 587.67004 174.54001 598.30005 178.84C 608.92004 183.15 619.3301 187.98999 629.48004 193.31999C 639.63043 198.65625 649.509 204.49329 659.08 210.81C 669.05 217.39 678.64 224.54 687.79004 232.22C 696.94006 239.90001 705.64 248.09 713.86005 256.77C 722.07007 265.44 729.78 274.58 736.9501 284.13998C 744.11005 293.69998 750.7301 303.65997 756.7601 313.96997C 762.75006 324.24997 768.12006 334.87997 772.8401 345.79996C 777.5601 356.71994 781.6101 367.90997 784.9801 379.31995C 788.3601 390.72995 791.0401 402.32996 793.0201 414.05994C 795.00006 425.78992 796.2801 437.62994 796.8401 449.50995C 798.6101 474.79996 797.6001 500.18994 793.8301 525.24994C 790.0494 550.3108 783.53033 574.8811 774.3901 598.51996C 765.25006 622.14996 753.5301 644.70996 739.4601 665.77997C 725.3901 686.85 709.0401 706.31995 690.7201 723.81995C 687.9701 726.1099 685.1501 728.32996 682.2801 730.47C 679.4101 732.62 676.4901 734.68994 673.5101 736.67C 667.5507 740.6544 661.3818 744.3164 655.0301 747.63995C 651.1401 749.73 647.2101 751.73 643.2301 753.64996C 639.2501 755.55994 635.2301 757.37994 631.1701 759.11C 627.1001 760.83997 623.0001 762.47 618.8601 764.01C 614.7301 765.55 610.5601 767 606.3501 768.35004C 553.6501 789.48004 495.0601 796.91003 437.4401 791.7C 376.1601 783.86 318.7201 756.22003 272.7301 715.06C 226.7501 673.89 191.24011 618.98 171.5601 556.5C 167.5001 544.08 167.0601 528.2 169.7301 523.52C 171.0301 521.17004 172.9901 521.54004 175.6301 526.14C 178.2701 530.74 181.67009 539.74 187.11009 554.17004C 191.81009 566.0101 197.11009 577.60004 202.9701 588.91003C 208.8201 600.21 215.2401 611.22003 222.20009 621.89C 229.15887 632.5505 236.64142 642.8598 244.62009 652.78C 252.61009 662.7 261.08008 672.22003 270.01007 681.29004C 266.56006 680.54004 260.94006 675.41003 255.32007 669.34C 254.06007 667.89 252.79007 666.45 251.49007 665.03C 248.89534 662.19165 246.22777 659.4207 243.49007 656.72003C 242.12007 655.38 240.73007 654.05005 239.32007 652.74005C 241.80006 656.48004 244.38007 660.17004 247.05006 663.78C 249.72006 667.4 252.49007 670.94 255.34006 674.42004C 258.19006 677.9001 261.12006 681.30005 264.15005 684.63007C 267.17004 687.9501 270.28006 691.2001 273.46005 694.37006C 276.63007 697.5101 279.87006 700.57007 283.19006 703.54004C 286.51007 706.52 289.91006 709.41003 293.38007 712.21C 296.84006 715.01 300.38007 717.72003 303.99005 720.34C 307.60004 722.96 311.27005 725.49005 315.01004 727.92004C 304.4909 721.0754 294.38068 713.6229 284.73004 705.60004C 279.90005 701.59 275.19003 697.45 270.61005 693.17004C 266.02005 688.89 261.56006 684.47003 257.23004 679.93005C 262.86005 685.86005 268.72003 691.5801 274.78003 697.07007C 280.83002 702.56006 287.09003 707.8301 293.54004 712.86005C 299.99005 717.89 306.62003 722.68005 313.42004 727.22003C 320.2155 731.7689 327.17993 736.05835 334.30005 740.08C 349.15088 748.4801 364.6902 755.5991 380.75006 761.36005C 388.77005 764.24005 396.91006 766.79004 405.15005 768.98004C 413.39005 771.17004 421.72006 773.0101 430.12006 774.50006C 442.38007 776.85004 453.52005 781.5801 466.51007 784.75006C 470.23007 785.73004 474.01007 786.4601 477.82007 786.92004C 481.64008 787.38007 485.48007 787.58 489.32007 787.5101C 493.17007 787.4501 497.00006 787.12006 500.80008 786.5201C 504.5901 785.93005 508.35007 785.07007 512.0301 783.9601C 500.7601 783.9801 489.49008 783.4201 478.2801 782.2901C 467.06723 781.15 455.91956 779.44116 444.8801 777.1701C 433.8422 774.88824 422.92807 772.04456 412.18008 768.6501C 401.43008 765.25006 390.8701 761.3001 380.52008 756.82007C 370.2201 752.3501 360.14008 747.4001 350.3101 741.9701C 340.4801 736.5501 330.9101 730.6501 321.6501 724.3101C 312.38245 717.9707 303.4222 711.193 294.80008 704.0001C 286.18008 696.8001 277.9101 689.20013 270.01007 681.2201C 270.06006 681.2201 270.10007 681.2301 270.14008 681.2301L270.14008 681.2301L270.41006 681.2301C 270.45007 681.2301 270.49005 681.2201 270.54007 681.2201C 263.74008 674.4701 257.27008 667.4101 251.14008 660.0601C 245.01027 652.7075 239.22726 645.0725 233.81007 637.1801C 228.39194 629.2852 223.3432 621.1431 218.68007 612.7801C 214.03008 604.4101 209.76007 595.8301 205.91006 587.07007C 211.14006 597.82007 217.52007 608.31006 222.27007 617.75006C 197.07007 567.54004 183.42007 513.4001 183.90007 458.67004C 184.73007 468.37006 185.95007 478.03003 187.55006 487.64005C 189.16006 497.24005 191.15007 506.78003 193.51007 516.22003C 195.88007 525.67004 198.63007 535.02 201.74007 544.24005C 204.86006 553.47003 208.34007 562.56006 212.18007 571.5101C 219.97455 589.718 229.41367 607.17706 240.38007 623.67004C 245.86006 631.91003 251.71007 639.9 257.91006 647.61005C 264.10992 655.3262 270.65997 662.7538 277.54007 669.87006C 298.2713 691.33636 322.03723 709.6476 348.08008 724.22003C 356.7501 729.07 365.6501 733.49005 374.7501 737.47003C 392.5116 745.20905 411.02713 751.0871 430.0001 755.01C 439.4801 756.98 449.0601 758.45 458.6901 759.42C 468.3301 760.39996 478.0001 760.87 487.6901 760.85C 466.5601 757.16 442.27008 754.64996 418.9801 748.97C 395.6901 743.3 373.7801 734.62 359.4501 722.67C 374.78943 730.58887 390.76535 737.20874 407.2101 742.45996C 423.65277 747.71716 440.5092 751.5809 457.6001 754.00995C 474.6901 756.44995 491.96008 757.43994 509.2201 756.9899C 526.4701 756.5299 543.6601 754.62994 560.6001 751.2999L560.6001 751.2999L545.7301 755.7699C 551.3501 755.3299 556.9501 754.6499 562.5201 753.7299C 568.08844 752.8209 573.61676 751.6799 579.0901 750.30994C 584.56006 748.92993 589.9801 747.32996 595.32007 745.50995C 600.6501 743.67993 605.92004 741.63995 611.0801 739.37994C 616.2701 737.1099 621.4001 734.72 626.4701 732.22C 631.5401 729.70996 636.5501 727.07996 641.4901 724.32996C 646.4401 721.57996 651.3101 718.72 656.1201 715.73C 660.9301 712.75 665.6701 709.66 670.33014 706.44995C 673.6201 704.27997 676.89014 702.07996 680.1301 699.75995L680.1301 699.75995L670.33014 706.44995C 662.01013 711.89996 653.4301 716.93994 644.6301 721.55994C 635.8201 726.17993 626.8001 730.36993 617.59015 734.11993C 608.3802 737.86993 599.0001 741.1699 589.47015 744.00995C 579.9401 746.8599 570.28015 749.2399 560.52014 751.13995C 577.6201 745.91 595.61017 740.29 616.65015 731.94995C 604.4401 734.55994 587.71014 739.52997 570.61017 742.7999C 565.1202 744.2099 559.5702 745.4599 554.0002 746.5399C 548.4302 747.61993 542.8202 748.5299 537.1902 749.2799C 531.5702 750.0199 525.92017 750.5999 520.2502 751.0099C 514.5902 751.4099 508.9202 751.6499 503.24017 751.7199C 511.59018 751.4099 519.91016 750.6599 528.17017 749.4599C 544.713 747.0614 560.95184 742.9012 576.61017 737.0499C 584.4302 734.11993 592.09015 730.7799 599.5602 727.0299C 555.53015 741.2899 507.37018 747.2699 461.80017 740.1099C 468.06018 740.7399 474.33017 741.1599 480.62018 741.36993C 486.90018 741.57996 493.1902 741.56995 499.47018 741.3499C 505.7602 741.12994 512.0302 740.6999 518.29016 740.05994C 524.54016 739.4199 530.77014 738.55994 536.97015 737.4899C 547.5701 736.24994 558.10016 734.3999 568.5002 731.93994C 589.3051 727.02496 609.4745 719.73035 628.61017 710.19995C 638.17017 705.42993 647.4402 700.11993 656.3902 694.29L656.3902 694.29L652.3902 697.25C 655.1602 695.44 657.8302 693.48 660.5002 691.57C 664.0202 689.17 667.4902 686.68 670.9002 684.11C 674.3102 681.55 677.6602 678.89996 680.9502 676.18C 684.2302 673.45 687.4602 670.64996 690.61017 667.77997C 693.7602 664.89996 696.85016 661.94995 699.8702 658.93C 707.6626 650.60913 714.5634 641.49634 720.4602 631.74C 722.4302 628.49 724.2802 625.18 726.0102 621.8L726.0102 621.8L730.2202 615.58C 728.55023 620.18 728.24023 622.87 733.9602 615.58C 737.0802 611.47003 740.0302 607.23004 742.80023 602.88C 745.57025 598.52997 748.1602 594.07 750.57025 589.5C 752.9802 584.94 755.20026 580.28 757.2302 575.54C 759.25024 570.8 761.0902 565.97 762.7202 561.07996C 769.99023 540.88995 775.3202 519.56995 781.0202 497.28995C 783.9702 485.54996 784.6802 469.14996 783.2202 451.73996C 783.4102 450.95996 783.5402 450.15997 783.5902 449.35995C 783.6502 448.55997 783.6402 447.74997 783.5602 446.94995C 783.48016 446.14993 783.3302 445.35995 783.1202 444.57996C 782.9002 443.80997 782.6202 443.04996 782.2702 442.31995C 781.8602 438.57996 781.3302 434.81995 780.7602 431.07996C 780.5402 428.78995 780.2702 426.50995 779.9502 424.22995C 779.6302 421.94995 779.2702 419.67996 778.8502 417.41995C 778.43024 415.15994 777.9602 412.90994 777.44025 410.66995C 776.9203 408.42996 776.3602 406.19995 775.74023 403.98996C 777.5402 412.76996 779.3502 421.86996 780.76025 431.07996L780.76025 431.07996L781.80023 441.37994C 781.37024 440.63995 780.9802 439.87994 780.63025 439.08994C 780.2803 438.30994 779.9703 437.50995 779.71027 436.68994C 779.45026 435.86993 779.2303 435.03995 779.06024 434.19995C 778.8902 433.35995 778.77026 432.50995 778.69025 431.64996C 779.32025 439.63995 779.6102 447.63995 779.56024 455.64996C 779.51025 463.64996 779.12024 471.65997 778.40027 479.62997C 777.6803 487.59998 776.6103 495.53998 775.2203 503.42996C 773.82025 511.30997 772.1003 519.12994 770.0403 526.86993C 767.9403 534.7399 765.5303 542.51996 762.8003 550.18994C 760.0803 557.86993 757.0403 565.42993 753.71027 572.8599C 750.38025 580.2899 746.75024 587.5799 742.83026 594.7199C 738.9103 601.8499 734.70026 608.8299 730.2203 615.6299C 731.5303 611.8099 733.6703 606.60986 734.27026 604.29987C 731.7903 610.26984 729.0503 616.0699 726.01025 621.84985C 722.99023 626.20984 719.8602 630.48987 716.62024 634.6899C 713.38025 638.8899 710.0302 643.0099 706.5902 647.03986C 703.1402 651.0699 699.5902 655.01984 695.9502 658.8699C 692.3102 662.72986 688.5602 666.48987 684.7302 670.1499C 685.7302 669.0699 686.69025 667.9599 687.62024 666.8299C 689.48126 664.556 691.2074 662.1754 692.7902 659.6999C 693.5802 658.4699 694.3402 657.2099 695.06024 655.9299C 689.7278 661.2108 684.20105 666.2905 678.49023 671.15985C 672.7776 676.02234 666.8865 680.6725 660.83026 685.09985C 654.77026 689.51984 648.5403 693.70984 642.1703 697.66986C 635.79224 701.6271 629.2676 705.3431 622.6103 708.8099C 615.9103 712.28986 609.0703 715.5099 602.1103 718.4599C 595.1603 721.4099 588.0903 724.0899 580.9303 726.4999C 573.7703 728.90985 566.5103 731.03986 559.1903 732.8799C 551.8603 734.72986 544.47034 736.28986 537.0203 737.5699C 523.11035 739.1899 509.11032 739.7699 495.12033 739.3099C 481.13034 738.84985 467.19034 737.35986 453.42032 734.8299C 439.65002 732.3092 426.08636 728.76953 412.84033 724.23987C 399.59372 719.708 386.70178 714.1996 374.27032 707.7599C 380.90033 711.9599 387.74033 715.79987 394.7603 719.2799C 401.7903 722.7599 409.0003 725.8599 416.3503 728.5799C 423.7103 731.2899 431.20032 733.6199 438.80032 735.54987C 446.40033 737.46985 454.1003 738.98987 461.86032 740.10986C 451.10123 739.03357 440.41525 737.31714 429.86032 734.96985C 419.30273 732.6334 408.89413 729.6681 398.6903 726.08984C 388.48334 722.5222 378.4994 718.3483 368.7903 713.58984C 359.07898 708.83716 349.65918 703.51117 340.58032 697.63983C 331.51642 691.8109 322.82336 685.42554 314.55032 678.51984C 306.28033 671.60986 298.45032 664.1998 291.1003 656.3198C 283.7503 648.4398 276.9003 640.1098 270.58032 631.3798C 264.26035 622.64984 258.49033 613.5398 253.31032 604.0998C 264.92032 615.1598 280.0003 629.8798 290.48032 633.0198C 291.95032 630.86975 276.9703 609.7698 287.48032 620.69977C 307.3203 639.7098 324.71033 654.8298 340.65033 665.3398C 356.60034 675.8498 371.08032 681.2398 383.95032 678.93976C 386.5603 677.91974 376.9403 667.61975 370.2503 657.7098C 363.5603 647.7898 359.2403 638.81976 366.95032 642.4898C 371.71033 645.2398 376.55032 647.8598 381.4703 650.32983C 386.3803 652.78986 391.3703 655.10986 396.42032 657.27985C 406.53195 661.61206 416.89386 665.33545 427.45032 668.4299C 429.3203 669.14984 431.20032 669.83984 433.1003 670.48987C 434.99033 671.1399 436.9003 671.7499 438.8203 672.3299C 440.74033 672.8999 442.67032 673.4399 444.61032 673.9399C 446.55032 674.4399 448.50034 674.90985 450.46033 675.3299C 451.42032 675.8499 453.31033 675.3299 455.69034 674.7299C 484.18033 679.5399 511.61035 677.68994 526.75037 676.3299C 532.3904 675.9299 537.99036 675.1699 543.56036 674.3099C 544.24036 674.3399 544.93036 674.3899 545.62036 674.46985C 546.30035 674.54987 546.98035 674.65985 547.66034 674.78986C 548.3303 674.91986 549.00037 675.07983 549.67035 675.26984C 550.3303 675.45984 550.99036 675.66986 551.6304 675.90985C 554.85034 673.9498 558.0904 672.16986 561.3304 670.6799C 564.9804 669.7499 568.6004 668.71985 572.19037 667.59985C 575.7804 666.46985 579.3404 665.2499 582.87036 663.9299C 586.3904 662.59985 589.8804 661.1899 593.3204 659.66986C 596.7704 658.15985 600.17035 656.54987 603.5304 654.85986C 605.5304 654.16986 607.5204 653.45984 609.4904 652.70984C 611.4704 651.95984 613.4304 651.1798 615.38043 650.35986C 617.33044 649.54987 619.27045 648.6999 621.1904 647.8199C 623.1104 646.9399 625.01044 646.0199 626.90045 645.0699C 626.1705 644.3399 624.29047 644.0299 625.0505 642.29987C 628.9405 639.70984 632.7505 636.97986 636.46045 634.1299C 640.1704 631.2799 643.79047 628.3199 647.3104 625.22986C 650.8304 622.13983 654.2404 618.9399 657.5504 615.6299C 660.8604 612.3199 664.0604 608.8999 667.14044 605.3799C 668.52045 604.1899 669.9205 603.0299 671.34045 601.8899C 672.76044 600.7499 674.20044 599.6299 675.66046 598.5399C 677.1205 597.44995 678.60046 596.3899 680.09045 595.3499C 681.59045 594.30994 683.10046 593.2899 684.63043 592.2999C 687.03046 581.2699 695.32043 566.7299 702.9304 549.8599C 710.5404 532.9899 717.1804 514.07996 719.2904 497.78992L719.2904 497.78992L718.9504 497.78992C 719.7104 493.69992 720.3504 489.5899 720.8804 485.45993C 721.41034 481.32996 721.8304 477.18994 722.1404 473.04993C 722.4504 468.89993 722.6404 464.73993 722.7304 460.57993C 722.8104 456.41992 722.7804 452.25992 722.6404 448.0999C 723.37036 445.29993 724.2104 442.57993 725.25037 439.9999C 723.4504 435.9399 722.8804 431.5799 721.86035 429.53992C 721.28033 416.03992 720.6304 404.42993 719.24036 392.6899C 717.91034 390.85992 714.0104 387.8999 712.50037 383.7399C 711.86035 381.6799 711.18036 379.6399 710.4604 377.6099C 709.7304 375.5799 708.9704 373.5599 708.1604 371.5599C 707.3504 369.5599 706.4904 367.5799 705.6004 365.6199C 704.7104 363.6599 703.7704 361.7099 702.8004 359.78992C 701.8004 357.50992 700.76044 355.23993 699.70044 352.98993C 698.63043 350.7416 697.53064 348.5086 696.40045 346.28992C 695.27045 344.07993 694.1105 341.8699 692.91046 339.6899C 691.72046 337.50992 690.4905 335.3399 689.23047 333.1899C 684.94196 325.8539 680.28284 318.7417 675.27045 311.8799C 670.25964 305.0158 664.8992 298.41367 659.21045 292.0999C 653.52045 285.7799 647.51044 279.75992 641.21045 274.0599C 634.91046 268.3599 628.32043 262.97992 621.46045 257.9599C 621.37695 257.24103 621.3938 256.5141 621.51044 255.7999C 621.57043 255.4399 621.66046 255.08989 621.77045 254.7499C 621.88043 254.4099 622.01044 254.0699 622.1705 253.7499C 616.6805 252.4599 610.8805 247.4999 606.1205 246.2099C 607.1405 246.2099 607.9205 245.9799 608.1305 245.2499C 606.7705 244.80989 605.4205 244.3199 604.0805 243.7999C 602.7505 243.27989 601.4305 242.7099 600.1405 242.0999C 598.8405 241.4899 597.5605 240.8499 596.3005 240.1599C 595.0505 239.4699 593.8105 238.7399 592.60046 237.9799C 591.5005 237.18991 590.39044 236.4299 589.26044 235.68991C 588.13043 234.94992 586.9804 234.2299 585.82043 233.53992C 584.66046 232.84993 583.4804 232.17992 582.3004 231.53992C 581.1104 230.89992 579.9104 230.27992 578.6904 229.68991C 577.9104 229.5299 577.1204 229.37991 576.33044 229.24991C 575.53046 229.1199 574.7404 228.99991 573.9404 228.88991C 573.15045 228.7899 572.3504 228.6999 571.5504 228.6199C 570.7504 228.5399 569.95044 228.4799 569.1504 228.4299C 567.69037 227.7999 566.2204 227.2799 564.7604 226.6799C 550.9004 215.9599 533.8804 214.6499 515.7904 212.99991C 511.2204 212.21991 506.6204 211.56992 502.0104 211.04991C 497.40042 210.5299 492.77042 210.13991 488.1404 209.87991C 483.5104 209.60991 478.87042 209.47992 474.2304 209.47992C 469.5904 209.47992 464.9504 209.60992 460.3104 209.85992C 445.5404 210.95993 439.08038 208.31993 428.1604 208.42993" stroke="none" fill="#415870" fill-rule="nonzero" />
        <path d="M713.41 533.93C 715.0814 530.2338 716.65845 526.4962 718.13995 522.72C 719.6099 518.93994 720.9899 515.12 722.27997 511.27997C 724.8365 503.57812 726.99915 495.7517 728.75995 487.82996C 726.41 505.02997 724.49994 521.26996 713.41 533.92993L713.41 533.92993L713.41 533.93zM360.09998 632.36C 359.24997 630.85 358.37997 629.33997 357.46997 627.85C 356.56998 626.36 355.63998 624.88995 354.67996 623.44C 353.71997 621.98 352.73996 620.55 351.72995 619.13C 350.71994 617.71 349.68994 616.3 348.62994 614.92C 355.55994 621.54 362.92993 627.69 370.67993 633.32996C 378.43994 638.95996 386.55994 644.06995 394.99994 648.61C 403.43994 653.16 412.17993 657.13 421.14993 660.51C 430.11993 663.88 439.30994 666.65 448.64993 668.79004L448.64993 668.79004L448.64993 669.11005C 433.24994 666.49005 415.39993 659.25006 399.83994 651.27C 384.28995 643.30005 370.63992 634.95 360.09995 632.36005zM692.80994 572.5C 692.81995 572.3 692.83997 572.1 692.8599 571.89L692.8599 571.89L692.9199 571.28C 692.94995 571.08 692.9699 570.88 692.99994 570.68005C 693.02997 570.4801 693.05994 570.2701 693.0999 570.07007C 693.12976 570.73517 693.0692 571.40125 692.9199 572.05005C 692.86993 572.27 692.7999 572.48004 692.7299 572.69006M264.17993 606.55005L261.74994 602.55005C 265.15417 607.4547 268.69867 612.25964 272.37994 616.96C 274.20993 619.31 276.07996 621.63 277.98993 623.93C 279.88992 626.23 281.81992 628.5 283.78992 630.74C 281.94992 628.89996 280.1599 627.02 278.41992 625.08997C 276.67993 623.1599 274.98993 621.18 273.35992 619.16C 271.72308 617.14185 270.13898 615.0809 268.60992 612.98C 267.0799 610.874 265.6027 608.7299 264.17993 606.55C 224.83994 479.88998 224.28993 473.87 223.94994 467.84C 223.59993 461.8 223.45993 455.76 223.51994 449.71C 223.58995 443.66998 223.84995 437.63 224.32994 431.59998C 224.79994 425.56998 225.46994 419.55997 226.34995 413.58C 227.77994 406.18 229.58995 398.86 231.78995 391.65C 233.97995 384.44 236.55995 377.35 239.50995 370.41C 242.44995 363.47 245.76994 356.7 249.42995 350.11002C 253.08995 343.52002 257.09995 337.13 261.43994 330.97003C 254.71098 342.61902 248.85823 354.7524 243.92995 367.27002C 238.99103 379.7855 234.98999 392.6509 231.95995 405.76C 228.92995 418.86002 226.86995 432.18002 225.80995 445.59003C 224.7417 458.9995 224.66818 472.46967 225.58995 485.89C 311.76996 573.19006 310.99997 571.33 310.25995 569.46C 309.51993 567.59 308.80994 565.7 308.12994 563.81C 307.44995 561.91 306.80994 560 306.19995 558.08C 305.58997 556.16003 305.00995 554.23004 304.46994 552.29004C 305.27994 554.08 306.10995 555.87006 306.97995 557.64C 307.83994 559.41003 308.72995 561.17004 309.63995 562.91003C 310.54996 564.66003 311.48996 566.39 312.45996 568.10004C 313.41995 569.82 314.40997 571.52 315.41995 573.21C 313.79996 572.48004 313.32996 574.26 312.57996 574.94M334.19995 676.77L328.38995 672.45C 333.82996 675.54004 339.34995 678.44 344.96994 681.06C 342.74994 680.38 337.79993 678.18 334.19995 676.77M288.59995 494.39C 289.22995 500.11002 290.09995 505.80002 291.21994 511.47C 289.77994 508.28 288.25995 505.16 286.45993 502.03C 286.72992 501.42 286.96994 500.81 287.18994 500.18C 287.40994 499.56 287.60995 498.93 287.77994 498.28998C 287.94992 497.64996 288.08994 496.99997 288.20993 496.34998C 288.32993 495.69998 288.42993 495.05 288.49994 494.38998M291.60992 406.02997C 292.0999 404.17996 292.61993 402.34998 293.17993 400.52997C 293.73993 398.70996 294.33994 396.89996 294.96994 395.09998C 295.59995 393.30997 296.25995 391.52 296.95993 389.74997C 297.6599 387.97995 298.39993 386.21997 299.15994 384.47998C 298.43994 386.65 297.74994 388.83 297.08994 391.02997C 296.42993 393.21997 295.79993 395.41998 295.20993 397.62997C 294.60992 399.83997 294.04993 402.05997 293.51993 404.28998C 292.98993 406.52 292.48993 408.74997 292.02994 410.99C 291.52994 408.75 291.07993 406.91 291.60992 406.03" stroke="none" fill="#415870" fill-rule="nonzero" />
	</g>
	<g>
        <path d="M360.92 44.46C 366.77002 47.01 372.52002 49.809998 378.14 52.85C 383.76 55.879997 389.25 59.16 394.59003 62.66C 399.93002 66.17 405.12003 69.9 410.15002 73.84C 415.18002 77.78999 420.03003 81.939995 424.71002 86.299995C 429.19003 90.49999 433.51 94.85999 437.67 99.369995C 441.83002 103.88999 445.82 108.56 449.63 113.369995C 453.44 118.17999 457.07 123.14 460.52002 128.22C 463.96002 133.3 467.22003 138.51 470.27002 143.83C 467.91003 139.77 465.44003 135.78 462.85 131.86C 460.25998 127.94 457.55002 124.1 454.74002 120.34C 451.93002 116.579994 449.01 112.899994 445.98 109.31C 442.96002 105.72 439.83002 102.21 436.6 98.799995C 438.9 101.229996 441.13 103.71999 443.30002 106.259995C 445.47003 108.81 447.57 111.409996 449.6 114.06C 451.64 116.71 453.6 119.42 455.5 122.17C 457.39 124.92 459.22 127.729996 460.97 130.56999C 462.72 133.45 464.41 136.37 466.01 139.32999C 467.62 142.29999 469.16 145.29999 470.61002 148.33998C 472.07 151.36998 473.45 154.44998 474.76 157.55998C 476.06 160.66998 477.29 163.80998 478.43002 166.97998C 477.63004 165.77998 476.85004 164.55998 476.08002 163.33998C 475.31 162.11998 474.56003 160.87997 473.83002 159.63998C 473.1 158.38998 472.39 157.13998 471.7 155.86998C 471 154.60999 470.33002 153.32999 469.67 152.03998C 466.61002 146.80998 463.42 141.91998 460.99002 140.81998C 456.65002 133.61998 451.97003 126.61998 446.97003 119.85998C 441.95844 113.100784 436.6325 106.58023 431.01004 100.31998C 419.7417 87.80852 407.3092 76.39725 393.88004 66.239975C 387.1458 61.14273 380.15338 56.39656 372.93002 52.019974C 365.71002 47.629974 358.27002 43.629974 350.63004 40.00997C 343.00003 36.389973 335.19003 33.159973 327.23004 30.339972C 319.26004 27.519972 311.16003 25.109972 302.95004 23.119972C 305.83005 22.939972 308.72003 22.959972 311.60004 23.179972C 314.47003 23.409971 317.33005 23.839972 320.15002 24.46997C 322.96002 25.089972 325.73 25.919971 328.43002 26.93997C 331.13153 27.953373 333.7581 29.15638 336.29 30.53997C 345.2 35.19997 352.42 40.71997 360.92 44.55997L360.92 44.55997L360.92 44.46zM494.12 240.01999C 493.36 233.29999 492.38998 226.94998 491.22 220.43C 491.61002 222.04 491.97 223.65 492.29 225.26999C 492.61002 226.9 492.89 228.51999 493.13 230.15999C 493.37 231.79 493.58002 233.43 493.74 235.07999C 493.91 236.71999 494.03 238.36998 494.12 240.01999zM45.95999 232.90999C 45.38999 239.80998 45.09999 246.73999 44.88999 253.43999C 44.819992 251.71999 44.77999 250.01 44.789993 248.29C 44.82041 243.14229 45.211365 238.00305 45.95999 232.90999zM273.38998 38.289993L261.78 39.099995C 254.35 38.769993 246.91 38.799995 239.48 39.179996C 232.05 39.569996 224.65 40.309998 217.29 41.409996C 209.93 42.499996 202.64 43.949997 195.42 45.749996C 188.2 47.549995 181.08 49.689995 174.06999 52.179996C 178.01999 50.67 181.99998 49.259995 186.01999 47.939995C 190.04 46.619995 194.09 45.399994 198.15999 44.269997C 202.23999 43.149998 206.34 42.119995 210.46999 41.179996C 214.58998 40.249996 218.73999 39.42 222.9 38.679996C 227.06 37.939995 231.26 37.379997 235.47 36.989998C 239.68001 36.6 243.9 36.39 248.13 36.359997C 252.36002 36.329994 256.58002 36.479996 260.80002 36.809998C 265.01 37.129997 269.21002 37.64 273.39 38.319996zM303.41998 48.929993C 317.4649 51.734467 331.09027 56.335632 343.96 62.61999C 350.38998 65.759995 356.61 69.30999 362.58 73.24999C 368.55 77.17999 374.27 81.49999 379.69 86.16999C 374.16 81.649994 368.38 77.45999 362.37 73.60999C 356.35565 69.765366 350.1255 66.26967 343.71 63.13999C 337.3 60.00999 330.71 57.249992 323.97998 54.87999C 317.24997 52.509987 310.37997 50.52999 303.41998 48.95999zM139.60999 397.03C 139.91998 396.53 140.54999 396.5 141.27998 396.66C 141.42998 396.74 141.56998 396.82 141.72998 396.89C 141.87997 396.96002 142.02998 397.02002 142.18999 397.07C 142.50264 397.18823 142.82826 397.2688 143.15999 397.31C 144.83998 399 146.54999 400.65 148.29 402.27C 150.01999 403.88998 151.79 405.47998 153.59 407.03998C 155.39 408.58997 157.20999 410.11 159.06 411.59998C 160.92 413.08997 162.8 414.53998 164.70999 415.95996C 163.55905 415.60162 162.42169 415.2014 161.29999 414.75995C 160.73999 414.53995 160.18999 414.31995 159.62999 414.07996C 159.07999 413.83997 158.52998 413.59995 157.98999 413.33997C 157.21999 412.70996 156.45999 412.04996 155.71999 411.37997C 154.97998 410.71 154.25998 410.02 153.54999 409.31998C 152.83551 408.61725 152.13881 407.89722 151.45999 407.15997C 150.77774 406.42764 150.11066 405.6805 149.45999 404.91998C 148.73 404.15997 147.96999 403.41998 147.18999 402.71C 146.40999 402 145.59999 401.31 144.76999 400.66C 143.93999 400 143.07999 399.38 142.20999 398.78C 141.34 398.18 140.43999 397.61 139.53 397.08zM47.139984 225.14L46.959984 224.38C 47.269985 222.02 47.529984 219.67 47.919983 217.37001L47.919983 217.37001L48.259983 216.56001C 47.919983 219.43001 47.559982 222.29001 47.139984 225.14001zM131.05998 388.4C 131.24998 388.19 131.41998 387.97 131.57999 387.74C 131.88446 387.2728 132.1202 386.76425 132.27998 386.22998C 132.34999 385.96997 132.40999 385.68997 132.44998 385.41998C 135.83998 389.46997 139.39998 393.25998 143.15999 397.18997C 143.01999 397.12997 142.87 397.06998 142.71999 397.01996C 142.56999 396.95996 142.41998 396.90997 142.26999 396.85995C 142.12 396.81995 141.96999 396.76996 141.81999 396.72995L141.81999 396.72995L141.35999 396.60995C 138.14998 394.87994 134.87999 390.22995 131.05998 388.39996M89.12998 279.05997C 88.94998 278.38995 88.749985 277.71997 88.50998 277.05997C 88.279976 276.39996 88.01998 275.75998 87.73998 275.11996C 87.44998 274.48996 87.139984 273.85995 86.79998 273.25998C 86.459984 272.65 86.08998 272.05 85.69998 271.47998C 86.76998 262.81998 88.319984 254.34998 90.34998 244.61998C 89.93998 242.99998 90.34998 239.77998 89.61998 236.55998C 89.91998 236.13998 90.21998 235.71999 90.50998 235.28998C 90.79998 234.85997 91.07998 234.42998 91.35998 233.98997C 91.63998 233.55998 91.919975 233.11998 92.17998 232.66997C 92.449974 232.22997 92.70998 231.77997 92.96998 231.32997C 91.849976 236.79997 90.97998 242.31998 90.37998 247.86996C 89.76998 253.41997 89.429985 258.98996 89.33998 264.57996C 89.25998 270.15994 89.42998 275.73996 89.86998 281.30997C 90.29998 286.86996 90.99998 292.40997 91.94998 297.91998C 91.57998 296.36 91.23998 294.8 90.929985 293.22998C 90.62998 291.65997 90.359985 290.08997 90.11999 288.50998C 89.889984 286.93 89.68999 285.34998 89.51999 283.75998C 89.34999 282.16998 89.219986 280.58 89.12999 278.97998" stroke="none" fill="#189AB6" fill-rule="nonzero" />
        <path d="M457.67 248.86C 458.11002 253.39 458.35 257.93 458.39 262.49C 458.43002 267.03998 458.28003 271.59 457.94 276.13C 457.59 280.66 457.05 285.19 456.32 289.68C 455.58002 294.16998 454.66 298.63 453.54 303.03998C 449.36002 321.11 443.24002 338.27 438.22 354.78998C 449.07 337.81998 457.75 315.03998 462.64 295.55997C 467.53003 276.07996 469.86002 259.99997 474.61002 256.64996C 479.37003 253.29996 480.71002 268.33997 477.52002 288.23996C 477.08002 290.88995 476.6 293.52997 476.06003 296.14996C 475.52002 298.77997 474.93002 301.39996 474.29004 303.99997C 473.65002 306.60995 472.95004 309.19998 472.21005 311.77997C 471.47006 314.35995 470.67004 316.91998 469.83005 319.45996C 466.48004 329.92996 462.56006 339.46997 459.37006 347.31995C 461.99005 343.57996 461.99005 343.57996 464.60007 339.70996C 463.93005 340.56995 463.30008 341.45996 462.72006 342.38995C 462.13007 343.31995 461.60007 344.26996 461.13007 345.25995C 460.65005 346.23996 460.22006 347.24994 459.85007 348.27994C 459.48007 349.30994 459.16006 350.35992 458.90005 351.41995C 459.75006 350.21994 460.57007 348.99994 461.38007 347.77994C 462.19006 346.54993 462.98007 345.30994 463.76007 344.05994C 464.53006 342.80994 465.29007 341.54993 466.03006 340.27994C 466.76007 339.00995 467.48007 337.72995 468.18005 336.43994C 468.74005 335.30994 469.34006 334.19995 469.96005 333.10995C 470.58005 332.01996 471.23004 330.93994 471.91006 329.87994C 472.59006 328.82996 473.30008 327.78995 474.04007 326.76996C 474.78006 325.74997 475.55008 324.75995 476.34006 323.77997C 476.34006 326.62997 476.34006 329.50998 476.18005 332.40997C 483.32007 322.12997 489.65005 305.41998 493.62006 287.94998C 497.59006 270.47998 499.42004 252.38998 501.75006 239.33998C 501.10007 247.59998 500.15005 255.83998 498.89008 264.02997C 497.6301 272.21997 496.0601 280.36996 494.20007 288.43997C 492.33008 296.51996 490.17007 304.51996 487.71008 312.43997C 485.2501 320.36 482.49008 328.17996 479.45007 335.88998C 476.16006 344.15997 472.47006 352.25998 468.38007 360.16998C 464.28006 368.06998 459.80008 375.77 454.95007 383.22998C 445.2293 398.15375 434.05487 412.0783 421.5901 424.8C 408.60272 438.02576 394.14148 449.71887 378.49008 459.65C 362.83585 469.57684 346.09695 477.67957 328.6001 483.8C 319.9001 486.84 311.0301 489.34998 302.0201 491.31998C 284.00198 495.27783 265.5721 497.04724 247.13011 496.58997C 237.9201 496.36996 228.73012 495.58997 219.6101 494.25998C 200.10011 491.86 180.91011 487.31998 162.3901 480.71997C 143.87189 474.12512 126.13517 465.5133 109.50011 455.03998C 76.12492 434.0236 47.798203 405.90173 26.540108 372.68C 23.85109 367.80945 21.430756 362.79523 19.290108 357.66C 18.210108 355.09 17.210108 352.5 16.270107 349.88C 15.340107 347.26 14.470107 344.62 13.670107 341.95C 12.660107 338.68002 11.720107 335.39 10.850107 332.07C 9.990108 328.75 9.200108 325.42 8.480107 322.07C 7.7701073 318.71002 7.1301074 315.35 6.5701075 311.96002C 6.0101075 308.58002 5.5301075 305.19003 5.1201077 301.79C 3.1360474 290.83774 1.7937622 279.77893 1.1001077 268.67C 0.40010768 257.57 0.36010766 246.43001 0.9701077 235.31001C 1.5810547 224.19934 2.8398743 213.13403 4.7401075 202.17001C 6.6501074 191.21 9.190107 180.36002 12.370108 169.70001C 16.19101 158.40025 20.861053 147.40546 26.340107 136.81001C 31.812576 126.21723 38.070023 116.048874 45.060104 106.390015C 52.060104 96.73001 59.770103 87.610016 68.130104 79.10001C 76.490105 70.60001 85.47011 62.73001 95.0101 55.570015C 104.8501 48.180016 115.170105 41.460014 125.9101 35.460014C 136.64847 29.449661 147.7807 24.170868 159.2301 19.660015C 170.6701 15.150015 182.4101 11.400015 194.3601 8.460015C 206.30011 5.5200152 218.43011 3.3800154 230.6701 2.0700154C 240.7601 0.8400154 252.8901 2.8200154 256.0501 5.5700154C 257.6701 6.9000154 257.1001 8.340015 253.12012 9.680016C 251.23012 10.180016 249.33012 10.650016 247.42012 11.100016C 245.51012 11.540015 243.59012 11.950016 241.67012 12.330015C 239.75012 12.710014 237.82011 13.070015 235.88013 13.390015C 233.95013 13.710014 232.01013 13.990015 230.07013 14.250014C 210.64233 17.93164 191.63095 23.546265 173.32013 31.010014C 164.18013 34.740013 155.22012 38.920013 146.49013 43.550014C 137.76013 48.170013 129.27013 53.230015 121.050125 58.710014C 122.120125 56.090015 126.85013 52.670013 132.29013 49.270016C 133.58012 48.530014 134.87013 47.770016 136.14014 46.990017C 137.41014 46.220016 138.67014 45.420017 139.93013 44.610016C 141.18013 43.800014 142.42014 42.970016 143.65013 42.130016C 144.87013 41.280018 146.09013 40.420017 147.29013 39.540016C 144.07013 40.880016 140.89014 42.300014 137.74013 43.80002C 134.59012 45.300022 131.48013 46.88002 128.42014 48.540016C 125.350136 50.200016 122.32014 51.930016 119.34013 53.740017C 116.36013 55.55002 113.420135 57.430016 110.54013 59.39002C 107.68013 61.34002 104.87013 63.36002 102.12013 65.45002C 99.36013 67.540016 96.66013 69.70002 94.020134 71.92002C 91.37013 74.150024 88.780136 76.44002 86.25014 78.80002C 83.72014 81.16002 81.26014 83.58002 78.850136 86.06002C 82.240135 82.56002 85.72014 79.150024 89.310135 75.84002C 92.89014 72.540016 96.57014 69.34002 100.34013 66.24002C 104.11013 63.15002 107.97013 60.17002 111.91013 57.300022C 115.850136 54.430023 119.87013 51.67002 123.97013 49.03002C 113.26878 55.84317 103.08751 63.44069 93.51013 71.760025C 83.92021 80.06593 74.965195 89.077774 66.72013 98.720024C 62.42013 103.760025 58.34013 108.98003 54.49013 114.370026C 50.63013 119.760025 47.01013 125.300026 43.63013 131.00003C 40.25013 136.69003 37.11013 142.53003 34.22013 148.49004C 31.330132 154.45004 28.70013 160.53003 26.330132 166.71004C 22.72013 175.68004 17.460133 183.45004 13.1201315 192.87004C 11.830132 195.55003 10.720131 198.33005 9.800132 201.17004C 8.880133 204.01004 8.160131 206.91005 7.640132 209.84004C 7.120132 212.78004 6.810132 215.75005 6.700132 218.74004C 6.5901318 221.72003 6.680132 224.70004 6.980132 227.67004C 10.283859 210.49477 15.340286 193.70361 22.070133 177.56004C 25.440132 169.49005 29.210133 161.60004 33.390133 153.92004C 37.560135 146.24005 42.120132 138.78004 47.060135 131.57004C 56.922073 117.17767 68.13997 103.76306 80.560135 91.51004C 86.76013 85.39004 93.26013 79.57004 100.030136 74.08004C 106.79014 68.58004 113.810135 63.41004 121.07014 58.58004C 121.05014 58.61004 121.030136 58.64004 121.020134 58.67004C 121.00014 58.70004 120.98013 58.73004 120.97013 58.76004C 120.950134 58.79004 120.94013 58.82004 120.93013 58.85004C 120.910866 58.880688 120.897316 58.914566 120.89013 58.95004C 127.03013 54.77004 133.37013 50.890038 139.87013 47.31004C 146.37013 43.73004 153.04013 40.46004 159.85013 37.50004C 166.66013 34.550037 173.61012 31.910038 180.66013 29.600039C 187.72012 27.29004 194.88013 25.31004 202.12012 23.670038C 193.12012 26.280039 184.24011 29.370037 176.34012 31.510038C 186.60011 28.54004 197.02011 26.180038 207.55011 24.440039C 218.0901 22.700039 228.72011 21.590038 239.3901 21.110039C 250.05011 20.64004 260.7401 20.79004 271.3901 21.580038C 282.0401 22.370037 292.6301 23.79004 303.1101 25.840038C 295.6001 25.04004 288.06012 24.54004 280.5201 24.340038C 272.97012 24.140038 265.41013 24.240038 257.87012 24.650038C 250.33012 25.050037 242.81012 25.760038 235.33011 26.760038C 227.8401 27.770039 220.40012 29.080038 213.02011 30.680038C 205.52011 32.31004 198.09012 34.280037 190.76012 36.58004C 183.44011 38.89004 176.22012 41.52004 169.13011 44.48004C 162.05011 47.450043 155.10011 50.73004 148.31012 54.32004C 141.53012 57.91004 134.90012 61.810043 128.47012 66.01004C 122.04013 70.21004 115.81012 74.73004 109.81012 79.54004C 103.81662 84.352005 98.06018 89.451065 92.56012 94.82004C 87.05012 100.19004 81.82012 105.82004 76.86012 111.700035C 71.910126 117.58003 67.24012 123.69003 62.880123 130.02003C 58.620125 136.22003 54.680122 142.62004 51.090122 149.22003C 47.490124 155.82004 44.23012 162.60004 41.340122 169.53003C 35.534912 183.40416 31.178497 197.84064 28.340122 212.61003C 34.30012 196.92003 39.790123 178.93002 47.580124 162.03003C 55.370125 145.14003 65.18012 129.74002 76.340126 120.58003C 68.03987 131.10196 60.630844 142.29749 54.190125 154.05003C 34.801056 189.48991 24.677994 229.2531 24.760124 269.65002L24.760124 269.65002L23.420124 257.62003C 22.930124 261.97003 22.620125 266.35004 22.480124 270.73C 22.350124 275.12003 22.410124 279.51 22.640123 283.88C 22.870123 288.26 23.290123 292.63 23.890123 296.98C 24.490124 301.32 25.260124 305.64 26.220123 309.92C 27.180122 314.2 28.230124 318.46002 29.390123 322.7C 30.550123 326.93002 31.810123 331.14 33.170124 335.31C 34.530125 339.47998 35.990124 343.62 37.540123 347.73C 39.100124 351.83002 40.760124 355.90002 42.510124 359.92C 43.690125 362.77002 44.860123 365.6 46.170124 368.39L46.170124 368.39L42.510124 359.92C 39.600124 352.78 37.030125 345.49002 34.820126 338.1C 32.600124 330.71 30.750126 323.21 29.260126 315.64C 27.770126 308.07004 26.650126 300.43002 25.900126 292.75C 25.150126 285.06998 24.770126 277.36 24.760126 269.65C 26.330126 283.44998 27.840126 297.97 31.060127 315.22998C 31.060127 305.55 29.570127 292.05997 29.620127 278.62C 29.360126 274.22 29.230127 269.82 29.230127 265.41C 29.230127 261.01 29.370127 256.61002 29.640127 252.21C 29.910128 247.81 30.310127 243.43001 30.840128 239.06001C 31.370129 234.69002 32.040127 230.33002 32.840126 226.00002C 31.830126 232.40001 31.170126 238.86002 30.850126 245.33002C 30.530127 251.80002 30.560125 258.29 30.940126 264.76C 31.320127 271.23 32.040127 277.68002 33.110126 284.07C 34.180126 290.47 35.590126 296.80002 37.330128 303.04C 32.990128 267.37 35.610126 229.82 47.790127 196.13C 46.390125 200.8 45.140125 205.51001 44.050125 210.25C 42.970123 215 42.040127 219.78 41.270126 224.59C 40.500126 229.4 39.900127 234.23999 39.460125 239.09C 39.010124 243.94 38.730125 248.8 38.610126 253.67C 37.990128 261.93 37.840126 270.22 38.170128 278.5C 38.50013 286.78 39.30013 295.03 40.580128 303.21C 41.860126 311.4 43.610126 319.50998 45.810127 327.49C 48.020126 335.47 50.69013 343.33 53.800125 351L53.800125 351L52.290127 347.5C 53.250126 349.85 54.35013 352.18 55.420128 354.53C 56.740128 357.57 58.12013 360.59 59.57013 363.56C 61.02013 366.54 62.54013 369.48 64.12013 372.38998C 67.29425 378.20535 70.73453 383.8713 74.43013 389.37C 76.16013 391.75 77.97013 394.07 79.85013 396.32C 81.74013 398.58002 83.71013 400.77002 85.74013 402.89C 87.78013 405.01 89.90013 407.05002 92.080124 409.03003C 94.260124 411.00003 96.510124 412.89 98.82012 414.71002L98.82012 414.71002L102.93012 418.81003C 99.71012 416.85004 97.70012 416.20004 102.43012 421.69003C 105.10012 424.68002 107.88012 427.56003 110.78012 430.32004C 113.68012 433.09003 116.690125 435.73004 119.81012 438.25003C 122.93012 440.76004 126.150116 443.15002 129.46011 445.40002C 132.77011 447.65002 136.17012 449.77002 139.66011 451.74002C 153.93011 460.26 169.3601 467.43002 185.49011 475.06003C 188.20012 476.20004 190.96011 477.23004 193.7501 478.15002C 196.5401 479.07 199.3701 479.88004 202.2301 480.59003C 205.08011 481.29004 207.9601 481.89 210.8601 482.37003C 213.76012 482.85004 216.68011 483.23 219.6101 483.49002C 220.1701 483.75003 220.7601 483.97003 221.3701 484.13004C 221.97011 484.29004 222.5901 484.40002 223.2101 484.46002C 223.8301 484.52002 224.4601 484.52002 225.0801 484.46002C 225.7101 484.41003 226.3201 484.30002 226.9301 484.14C 229.8301 484.37003 232.7801 484.53003 235.7101 484.66C 237.4901 484.84 239.2601 484.97 241.0401 485.07C 242.8201 485.16 244.6101 485.22 246.3901 485.23C 248.1701 485.25 249.9501 485.22 251.7301 485.16C 253.5201 485.09 255.30011 484.99 257.0701 484.85C 250.1201 484.85 242.9001 484.85 235.7101 484.66L235.7101 484.66L227.7101 483.96C 228.3401 483.72998 228.9701 483.53998 229.6201 483.38C 230.2701 483.23 230.9201 483.11002 231.58011 483.03C 232.24011 482.94998 232.90012 482.9 233.57011 482.9C 234.23012 482.88998 234.89012 482.91998 235.56012 482.99C 229.39012 482.28998 223.25012 481.33 217.16013 480.09998C 211.08012 478.87997 205.04013 477.39996 199.08012 475.66998C 193.12012 473.94 187.23012 471.96 181.44012 469.71997C 175.65013 467.48996 169.95012 465.01996 164.37012 462.29996C 158.68011 459.53995 153.12012 456.54996 147.68011 453.33997C 142.24011 450.12997 136.93011 446.69995 131.77011 443.05997C 126.60011 439.41995 121.59011 435.56998 116.74011 431.52997C 111.890114 427.47998 107.20011 423.23996 102.69011 418.80997C 105.31011 420.40997 109.05011 422.80997 110.72011 423.59998C 106.560104 420.83 102.560104 417.81998 98.59011 414.70996C 95.72011 411.75995 92.930115 408.73996 90.21011 405.64996C 87.500114 402.55997 84.860115 399.39996 82.31011 396.17996C 77.19438 389.73615 72.40842 383.03778 67.97011 376.10995C 68.65011 377.01996 69.350105 377.91995 70.08011 378.79996C 70.81011 379.66995 71.56011 380.52997 72.33011 381.36996C 73.11011 382.19995 73.91011 383.00998 74.73011 383.79996C 75.55011 384.58994 76.390114 385.35995 77.25011 386.09995C 74.0201 381.25995 70.98011 376.28995 68.12011 371.21994C 65.26011 366.14993 62.59011 360.96994 60.12011 355.69995C 57.65011 350.42996 55.38011 345.05994 53.32011 339.61996C 51.249435 334.17636 49.388214 328.65607 47.740112 323.06998C 46.09011 317.44998 44.66011 311.77 43.45011 306.03998C 42.240112 300.30997 41.260113 294.52997 40.490112 288.71997C 39.730114 282.91998 39.190113 277.07996 38.88011 271.22998C 38.560112 265.37997 38.48011 259.52 38.61011 253.66998C 39.440113 242.82999 41.07011 232.06998 43.50011 221.47998C 45.920113 210.88998 49.12011 200.48997 53.08011 190.36998C 57.05011 180.24998 61.750107 170.43997 67.170105 161.01997C 72.58011 151.59998 78.69011 142.58997 85.44011 134.07997C 81.26011 138.49997 77.32011 143.12997 73.63011 147.96997C 69.94012 152.80997 66.500114 157.82997 63.34011 163.02997C 60.19011 168.22997 57.30011 173.58997 54.71011 179.08997C 52.12011 184.59996 49.82011 190.22997 47.82011 195.97997C 50.23011 187.93997 53.12011 180.04996 56.46011 172.34996C 59.81011 164.64996 63.61011 157.15996 67.84011 149.90996C 72.070114 142.65996 76.73011 135.66995 81.79011 128.96996C 86.850105 122.27995 92.30011 115.88995 98.12011 109.83996C 103.91011 103.79996 110.08011 98.12996 116.570114 92.84996C 123.070114 87.57996 129.8901 82.71996 136.99011 78.28996C 144.09012 73.869965 151.46011 69.88996 159.06012 66.37996C 166.65012 62.86996 174.46011 59.83996 182.43011 57.299957C 172.29012 64.51996 158.90012 73.829956 154.90012 81.359955C 156.31012 82.76996 174.59012 74.50996 164.73012 80.88995C 147.29012 93.179955 133.23012 104.15996 122.900116 114.87996C 112.58012 125.59996 106.27012 135.79996 106.140114 145.84996C 106.51012 148.03996 115.790115 142.17996 124.44011 138.54996C 133.10011 134.90996 140.44011 132.94995 136.52011 138.28996C 133.72011 141.50996 131.01012 144.80997 128.40012 148.18996C 125.790115 151.56995 123.28011 155.02995 120.88012 158.55995C 118.480125 162.08995 116.18012 165.68996 113.99012 169.35995C 111.81012 173.01996 109.73012 176.75995 107.76012 180.54996C 106.94012 181.86996 106.150116 183.19995 105.37012 184.53996C 104.60012 185.88997 103.85012 187.24997 103.13012 188.62996C 101.68585 191.37544 100.34492 194.1741 99.11012 197.01996C 99.00012 197.33997 98.90012 197.66995 98.830124 198.00996C 98.760124 198.33997 98.71012 198.67996 98.690125 199.01996C 98.660126 199.35995 98.660126 199.69995 98.690125 200.03996C 98.71012 200.37996 98.75012 200.71996 98.82012 201.04996C 97.28183 205.39459 95.8811 209.78687 94.620125 214.21996C 93.35013 218.64995 92.230125 223.12996 91.25012 227.62996C 89.27304 236.63815 87.873535 245.76328 87.06012 254.94995C 86.54012 259.31995 86.27012 263.65994 86.14012 268.01996C 86.010124 268.53995 85.870125 269.05997 85.70012 269.56995C 85.53012 270.06995 85.35012 270.56995 85.14012 271.06995C 84.940125 271.55994 84.72012 272.04996 84.48012 272.52994C 84.24011 273.00992 83.99012 273.47995 83.71012 273.93994C 84.73012 276.67993 85.59012 279.39993 86.330124 282.08994C 86.49013 284.99994 86.72012 287.88992 87.04012 290.77994C 87.36012 293.66995 87.760124 296.54993 88.230125 299.41995C 88.71013 302.28995 89.260124 305.13995 89.90012 307.97995C 90.53012 310.80994 91.24012 313.62994 92.03012 316.42996C 92.25012 318.05997 92.49012 319.67996 92.77012 321.29996C 93.05012 322.91995 93.35012 324.52997 93.68012 326.13995C 94.010124 327.73996 94.370125 329.34995 94.760124 330.93994C 95.15012 332.53995 95.56013 334.11993 96.00012 335.69995C 96.65012 335.25995 97.18012 333.86996 98.35012 334.67996C 99.760124 338.03995 101.27012 341.34998 102.89012 344.59998C 104.52012 347.86 106.24012 351.05997 108.080124 354.20996C 109.910126 357.34998 111.840126 360.42996 113.870125 363.44995C 115.910126 366.45996 118.04012 369.40994 120.260124 372.28995C 120.96012 373.51996 121.64012 374.75995 122.300125 376.00995C 122.96013 377.25995 123.590126 378.51996 124.20013 379.79996C 124.82013 381.06995 125.410126 382.35995 125.97012 383.64996C 126.54012 384.93997 127.090126 386.24997 127.61012 387.55997C 135.66013 391.00998 145.52013 399.50998 157.23012 407.69995C 160.07011 409.80994 162.99011 411.80994 165.98012 413.71994C 168.96011 415.61993 172.02011 417.40994 175.13011 419.09995C 178.24011 420.78995 181.41011 422.35995 184.6401 423.81995C 187.8601 425.27994 191.1401 426.62994 194.46011 427.85995L194.46011 427.85995L194.46011 427.64996C 197.45012 428.81998 200.48012 429.91995 203.54012 430.92996C 206.59012 431.93997 209.67012 432.86996 212.78012 433.70996C 218.98476 435.4135 225.27742 436.77887 231.63013 437.79996C 232.13013 438.02997 232.63013 438.26996 233.12013 438.50995C 233.61014 438.75995 234.10013 439.00995 234.58014 439.26996C 235.07014 439.52997 235.55014 439.79996 236.02014 440.06995C 236.50014 440.33994 236.97014 440.61993 237.44014 440.90994C 240.81013 440.12994 244.18015 440.33994 245.86014 439.83994C 256.31015 441.40994 265.12015 442.63992 274.27014 443.28995C 274.87015 442.85995 275.48013 442.45996 276.10013 442.07996C 277.35602 441.331 278.67426 440.69196 280.04013 440.16995C 280.72012 439.90994 281.42014 439.66995 282.12012 439.46994C 285.44675 439.10675 288.7561 438.60303 292.04013 437.95993C 293.68015 437.63992 295.32013 437.28992 296.95013 436.89993C 298.57013 436.50992 300.19012 436.08994 301.80014 435.62994C 303.69016 435.19995 305.56015 434.74994 307.43015 434.27994C 309.30014 433.79993 311.17014 433.28995 313.02014 432.75995C 314.88013 432.22995 316.72015 431.66995 318.56015 431.07996C 320.40015 430.49997 322.23016 429.88995 324.05014 429.24997C 330.27014 427.06998 336.38013 424.56998 342.34015 421.76996C 354.27872 416.1532 365.6139 409.3347 376.17017 401.41995C 381.44016 397.45996 386.51016 393.23996 391.35016 388.76996C 391.63016 388.78995 391.91016 388.81995 392.18015 388.87994C 392.46014 388.93994 392.73013 389.01996 393.00015 389.11993C 393.26016 389.21994 393.52014 389.32993 393.77014 389.45993C 394.02014 389.59995 394.26013 389.74994 394.48013 389.91992C 396.26013 385.9099 400.92014 382.2499 402.59012 378.79993C 402.4301 379.58994 402.59012 380.20993 403.03012 380.47992C 403.57013 379.4999 404.13013 378.53992 404.73013 377.5999C 405.33014 376.66992 405.95013 375.7499 406.61014 374.8499C 407.26013 373.94992 407.95013 373.06992 408.66013 372.2199C 409.37012 371.35992 410.11014 370.5299 410.88013 369.72992C 411.63013 368.9999 412.37012 368.26993 413.10013 367.50992C 413.83014 366.75992 414.54013 365.98993 415.23013 365.20993C 415.92014 364.41992 416.60013 363.62994 417.26013 362.80994C 417.92014 361.99994 418.56012 361.17993 419.19012 360.33994C 419.44012 359.76993 419.67014 359.18994 419.89014 358.60992C 420.12015 358.02994 420.33014 357.44992 420.53015 356.85992C 420.72015 356.26993 420.91016 355.67993 421.08014 355.07993C 421.26013 354.47992 421.42014 353.8799 421.57013 353.27994C 422.27014 352.25995 422.9301 351.20993 423.58014 350.18994C 433.78015 341.21994 437.31015 328.45993 441.23013 314.90994C 442.50012 311.53995 443.68015 308.12994 444.77014 304.69995C 445.85013 301.25995 446.84015 297.78995 447.72015 294.28995C 448.61017 290.79996 449.40015 287.27994 450.08014 283.73996C 450.77014 280.19995 451.36014 276.63995 451.84015 273.06995C 453.18015 261.66995 456.16016 257.14993 457.70013 248.79994" stroke="none" fill="#189AB6" fill-rule="nonzero" />
        <path d="M167.61 418.13C 170.18001 419.96 172.79 421.72 175.45 423.41C 178.11 425.1 180.81 426.72 183.55 428.28C 186.29001 429.83 189.07 431.31 191.89 432.72C 194.70999 434.13 197.56 435.46 200.44 436.73C 187.69 432.39 175.61 428.54 167.61 418.21002L167.61 418.21002L167.61 418.13zM145.02 134.36002C 146.3 133.95001 147.58 133.51001 148.84001 133.04001C 150.11002 132.58 151.37001 132.09001 152.61002 131.57C 153.86002 131.06001 155.10002 130.53001 156.33002 129.97C 157.55002 129.41 158.77002 128.82 159.97002 128.22C 153.91002 132.52 148.14001 137.22 142.70001 142.29001C 137.26001 147.36002 132.17001 152.79001 127.460014 158.55C 122.750015 164.3 118.430016 170.37 114.540016 176.7C 110.640015 183.04 107.17001 189.62 104.16002 196.42L104.16002 196.42L103.92002 196.42C 105.25002 193.31999 106.68002 190.26 108.220024 187.26C 109.760025 184.25 111.400024 181.29999 113.150024 178.42C 114.900024 175.53 116.75002 172.70999 118.70003 169.95C 120.650024 167.2 122.70003 164.51 124.84003 161.9C 133.12003 151.06999 141.59003 142.04999 145.12003 134.42zM141.08 396.68002L141.53 396.80002C 141.68 396.84003 141.84 396.88 141.99 396.93002C 142.14001 396.98004 142.29001 397.02002 142.44 397.07004C 142.58 397.12003 142.73 397.18002 142.88 397.23004C 142.72 397.20004 142.55 397.17004 142.39 397.13004C 142.23 397.09003 142.06999 397.04004 141.91 396.99002C 141.59584 396.8788 141.29146 396.74167 141 396.58002zM178.83 65.18002L182.25 63.930023C 178.01712 65.79195 173.83812 67.77637 169.72 69.88002C 167.66 70.93002 165.62 72.01002 163.59 73.12002C 161.56 74.23002 159.55 75.360016 157.55 76.53002C 159.22 75.400024 160.91 74.32002 162.64 73.28002C 164.36 72.24002 166.12 71.25002 167.89 70.30002C 169.67 69.35002 171.47 68.45002 173.29 67.60002C 175.12 66.74002 176.95999 65.94002 178.82999 65.18002zM276.4 53.650024C 281.07 53.970024 285.74 54.440025 290.38 55.070023C 295.02002 55.70002 299.64 56.49002 304.23 57.44002C 308.82 58.38002 313.38 59.480022 317.89 60.730022C 322.41 61.99002 326.88 63.390022 331.30002 64.95002C 336.72485 67.12752 342.0294 69.5945 347.19003 72.34002C 352.35004 75.08002 357.36005 78.09002 362.21002 81.37002C 367.05002 84.640015 371.72003 88.16002 376.19003 91.930016C 380.66003 95.70001 384.93002 99.69002 388.97003 103.91002C 381.10004 97.06002 372.73004 90.81002 363.93002 85.20002C 355.14 79.59002 345.93002 74.63002 336.41003 70.38002C 326.88004 66.13002 317.05005 62.59002 307.00003 59.79002C 296.94003 56.99002 286.70004 54.94002 276.35004 53.65002zM195.72 106.68002C 197.24 106.35002 198.77 106.04002 200.31 105.75002C 201.84 105.470024 203.38 105.21002 204.92 104.98003C 208.01146 104.52507 211.1159 104.168274 214.23 103.91003C 212.73 104.260025 211.25 104.63003 209.76999 105.02003C 208.27998 105.42003 206.80998 105.830025 205.34 106.27003C 203.87 106.70003 202.41 107.16003 200.95 107.64003C 199.5 108.12003 198.05 108.62003 196.61 109.14003C 197.42 108.02003 196.11 107.39003 195.72 106.71003zM115.06 108.07002L119.189995 104.27002C 116.06 107.99002 113.02 111.73002 110.17 115.62002C 111.04 114.03002 113.439995 110.60002 115.06 108.070015zM260.66 100.35002C 256.21 99.98002 251.74 99.830025 247.3 99.91002C 249.91 99.28002 252.53 98.57002 255.14 97.66002C 255.56 97.95002 255.99 98.22002 256.43 98.47002C 256.87 98.73002 257.32 98.97002 257.78 99.180016C 258.24 99.40002 258.71 99.60001 259.18 99.780014C 259.66 99.97002 260.13998 100.13001 260.63 100.27001M327.48 115.73001C 328.81 116.37001 330.13 117.04001 331.44 117.74001C 332.74 118.44001 334.03 119.16001 335.31 119.91001C 336.58 120.66001 337.84 121.43001 339.09 122.23001C 340.33 123.030014 341.56 123.85001 342.78 124.70001C 341.23 123.820015 339.67 122.97001 338.1 122.140015C 336.53 121.31002 334.94 120.51002 333.35 119.73001C 331.75 118.95001 330.14 118.19001 328.53 117.460014C 326.91 116.73001 325.28 116.02001 323.63998 115.34001C 325.41998 115.34001 326.90997 115.34001 327.47998 115.73001" stroke="none" fill="#189AB6" fill-rule="nonzero" />
	</g>
</g>
</svg>