<?xml version="1.0" standalone="no"?>
<!DOCTYPE svg PUBLIC "-//W3C//DTD SVG 1.0//EN" "http://www.w3.org/TR/2001/REC-SVG-20010904/DTD/svg10.dtd">
<svg xmlns="http://www.w3.org/2000/svg" xmlns:xlink="http://www.w3.org/1999/xlink" id="body_1" width="65" height="65">

<defs>
    <linearGradient transform="matrix(1 0 0 1 0 0)"  id="1" x1="50" y1="0" x2="50" y2="100">
        <stop stop-color="#0091E6" offset="0%"/>
        <stop stop-color="#0079BF" offset="100%"/>
    </linearGradient>
</defs>

<g transform="matrix(0.25390625 0 0 0.25390625 0 0)">
    <path d="M0 25C 0 11.192882 11.192882 0 25 0L25 0L231 0C 244.80711 0 256 11.192882 256 25L256 25L256 231C 256 244.80711 244.80711 256 231 256L231 256L25 256C 11.192882 256 0 244.80711 0 231L0 231L0 25z" stroke="none" fill="url(#1)" />
    <path d="M144.64 45.28C 144.64 38.65258 150.01259 33.28 156.64 33.28L156.64 33.28L210.72 33.28C 217.34741 33.28 222.72 38.65258 222.72 45.28L222.72 45.28L222.72 133.28C 222.72 139.90741 217.34741 145.28 210.72 145.28L210.72 145.28L156.64 145.28C 150.01259 145.28 144.64 139.90741 144.64 133.28L144.64 133.28L144.64 45.28z" stroke="none" fill="#FFFFFF" fill-rule="nonzero" />
    <path d="M33.28 45.28C 33.28 38.65258 38.65258 33.28 45.28 33.28L45.28 33.28L99.36 33.28C 105.98742 33.28 111.36 38.65258 111.36 45.28L111.36 45.28L111.36 197.28C 111.36 203.90741 105.98742 209.28 99.36 209.28L99.36 209.28L45.28 209.28C 38.65258 209.28 33.28 203.90741 33.28 197.28L33.28 197.28L33.28 45.28z" stroke="none" fill="#FFFFFF" fill-rule="nonzero" />
</g>
</svg>